<svg width="549" height="308" viewBox="0 0 549 308" fill="none" xmlns="http://www.w3.org/2000/svg">
<g clip-path="url(#clip0_181_178)">
<path fill-rule="evenodd" clip-rule="evenodd" d="M121.534 4.66124C121.95 4.06614 122.551 4.28254 122.176 1.70738C120.777 -2.51026 122.559 2.4994 122.394 1.78312C122.187 3.02742 121.423 2.4215 120.956 2.35442C121.099 2.91273 121.293 3.81295 121.534 4.66124Z" fill="#1A1A1A"/>
<path fill-rule="evenodd" clip-rule="evenodd" d="M32.6826 262.733C29.447 257.356 26.8076 251.442 24.2182 246.166C22.8409 248.291 18.8938 271.543 13.4409 308H25.2388C28.8116 281.238 31.4684 264.642 32.6826 262.733Z" fill="#1A1A1A"/>
<path fill-rule="evenodd" clip-rule="evenodd" d="M22.58 247.308C19.9646 242.316 17.5341 237.562 15.0753 233.95C13.7371 235.887 8.96097 264.387 2.39404 308H13.0582C17.83 272.201 21.2984 249.358 22.58 247.308Z" fill="#1A1A1A"/>
<path fill-rule="evenodd" clip-rule="evenodd" d="M13.8982 232.5C11.694 229.36 9.58991 226.378 7.51191 223.543C5.05095 237.772 2.55952 251.812 0.168187 265.765C-2.26449 279.935 -4.66453 294.034 -7.00146 307.97L-6.8448 307.998H2.7423C6.31516 283.201 10.11 257.949 13.8982 232.498V232.5Z" fill="#1A1A1A"/>
<path fill-rule="evenodd" clip-rule="evenodd" d="M6.64789 222.068C4.80706 219.131 3.05109 216.519 1.37999 214.059C-1.78815 229.678 -4.95194 245.127 -7.99822 260.279C-11.0728 275.585 -14.0908 290.716 -17 305.553V306.161C-14.2366 306.682 -11.397 307.199 -8.48128 307.671C-6.103 293.625 -3.58764 279.357 -1.05051 264.967C1.44309 250.818 4.09771 236.534 6.64789 222.068Z" fill="#1A1A1A"/>
<path fill-rule="evenodd" clip-rule="evenodd" d="M0.548786 212.968C-1.02658 210.616 -2.26685 208.242 -3.36352 205.721C-7.21924 222.516 -11.1207 239.163 -14.7305 255.549L-17 265.852V299.05C-14.4237 286.09 -11.7495 272.941 -9.04702 259.656C-5.9311 244.322 -2.70856 228.696 0.550962 212.97L0.548786 212.968Z" fill="#1A1A1A"/>
<path fill-rule="evenodd" clip-rule="evenodd" d="M123.499 308C117.226 301.906 111.264 296.236 105.606 290.45C102.125 296.169 98.4846 302.071 94.853 308H123.499Z" fill="#1A1A1A"/>
<path fill-rule="evenodd" clip-rule="evenodd" d="M102.377 287.526C95.9019 280.723 89.8942 275.083 84.2411 269.875C77.8548 278.673 71.9363 287.215 65.6914 296.682C68.4831 300.101 71.3336 303.94 74.3168 308.002H89.5743C93.8739 300.976 98.1387 294.183 102.377 287.526Z" fill="#1A1A1A"/>
<path fill-rule="evenodd" clip-rule="evenodd" d="M81.5929 267.085C75.9921 262.086 71.0592 257.334 66.2701 252.762C60.6714 260.264 54.927 268.267 49.3262 276.161C53.6019 281.625 58.3214 287.213 63.1759 293.386C69.3468 284.464 75.2566 275.815 81.5929 267.085Z" fill="#1A1A1A"/>
<path fill-rule="evenodd" clip-rule="evenodd" d="M63.9505 250.658C59.5334 246.791 55.299 242.866 51.3345 239.219C46.3712 245.792 41.223 252.175 36.0073 258.985C39.6389 263.467 43.3423 268.198 47.2895 273.519C52.8489 265.856 58.4693 257.951 63.9527 250.658H63.9505Z" fill="#1A1A1A"/>
<path fill-rule="evenodd" clip-rule="evenodd" d="M37.5742 225.805C34.5344 222.795 31.5425 220.109 28.6529 217.512C24.5557 222.362 20.0798 227.696 15.9956 232.853C18.3108 235.965 20.998 239.289 23.6766 243.076C28.3287 236.986 32.872 231.676 37.5742 225.805Z" fill="#1A1A1A"/>
<path fill-rule="evenodd" clip-rule="evenodd" d="M26.9731 216.621C24.3903 214.093 21.777 211.799 19.5053 209.237C15.8411 213.559 11.9984 218.012 8.42773 222.334C10.3752 225.253 12.5468 228.179 14.8141 231.297C18.7764 226.441 22.9999 221.375 26.9731 216.621Z" fill="#1A1A1A"/>
<path fill-rule="evenodd" clip-rule="evenodd" d="M17.8602 207.761C15.7604 205.439 13.7477 203.325 11.8198 201.224C8.47111 205.035 5.01793 209.062 1.84326 212.816C3.38164 215.225 5.19853 217.666 7.10246 220.354C10.671 216.078 14.4462 211.795 17.8624 207.761H17.8602Z" fill="#1A1A1A"/>
<path fill-rule="evenodd" clip-rule="evenodd" d="M10.608 200.053C8.77372 198.253 7.14178 196.379 5.39887 194.641C2.49837 197.907 -0.560968 201.252 -3.46582 204.518C-2.24295 206.87 -0.813375 209.181 0.50088 211.667C3.8692 207.885 7.38331 203.875 10.608 200.053Z" fill="#1A1A1A"/>
<path fill-rule="evenodd" clip-rule="evenodd" d="M4.72202 193.732C3.18799 192.079 1.79106 190.159 0.587772 188.45C-2.11254 191.362 -4.65184 194.232 -7.53711 197.333C-6.35123 199.423 -5.1523 201.399 -3.88374 203.546C-1.04852 200.382 1.88244 197.099 4.72419 193.732H4.72202Z" fill="#1A1A1A"/>
<path fill-rule="evenodd" clip-rule="evenodd" d="M9.45069 132.238C11.2262 131.283 12.893 130.385 14.7208 129.654C14.7186 129.916 14.773 130.074 14.9384 130.056C12.9974 130.965 10.9412 132.168 9.32666 133.032C9.33319 132.679 9.33319 132.577 9.45069 132.238Z" fill="#1A1A1A"/>
<path fill-rule="evenodd" clip-rule="evenodd" d="M-2.51704 141.417C-1.4813 140.337 -0.395514 139.344 0.742491 138.453C0.453094 138.855 0.161521 139.277 -0.0713019 139.617C-1.32898 140.736 -2.53009 141.774 -3.68115 142.843C-3.27426 142.395 -3.03926 142.06 -2.51704 141.417Z" fill="#1A1A1A"/>
<path fill-rule="evenodd" clip-rule="evenodd" d="M187.989 297.92C177.029 290.543 167.54 283.556 157.637 277.133C151.732 287.152 145.593 297.057 139.394 308.002H182.595C184.377 304.605 186.174 301.244 187.989 297.92Z" fill="#1A1A1A"/>
<path fill-rule="evenodd" clip-rule="evenodd" d="M153.198 274.287C144.488 268.148 136.341 262.268 128.802 256.88C122.478 266.291 116.216 275.668 109.98 285.624C117.3 292.4 124.791 299.943 133.354 307.269C139.918 295.732 146.742 284.964 153.198 274.287Z" fill="#1A1A1A"/>
<path fill-rule="evenodd" clip-rule="evenodd" d="M125.194 254.367C117.97 250.187 111.577 245.575 105.36 241.282C99.6247 248.96 93.6997 257.01 87.9727 265.408C93.8041 270.872 99.7857 276.449 106.49 282.846C112.878 272.826 118.849 263.387 125.194 254.367Z" fill="#1A1A1A"/>
<path fill-rule="evenodd" clip-rule="evenodd" d="M102.53 238.999C96.5415 235.142 91.0821 231.234 85.8229 227.951C80.5594 234.523 74.9585 241.974 69.6123 249.574C74.5081 253.874 79.726 258.07 85.3573 262.887C90.8689 254.863 96.7547 246.889 102.53 238.999Z" fill="#1A1A1A"/>
<path fill-rule="evenodd" clip-rule="evenodd" d="M83.3163 226.35C78.3074 223.379 73.7815 220.215 69.2925 217.631C64.301 223.498 59.5161 229.598 54.418 236.153C58.426 239.646 62.8366 243.208 67.2624 247.166C72.5543 240.226 78.0397 232.875 83.3163 226.35Z" fill="#1A1A1A"/>
<path fill-rule="evenodd" clip-rule="evenodd" d="M23.6178 126.308C22.4537 126.189 21.4006 126.064 20.4606 125.882C18.5327 127.78 16.7637 129.55 14.875 131.35C15.8172 131.48 16.7049 131.788 17.7059 132.021C19.6511 130.186 21.529 128.278 23.6178 126.308Z" fill="#1A1A1A"/>
<path fill-rule="evenodd" clip-rule="evenodd" d="M53.5954 207.045C50.0508 204.927 46.8414 202.682 43.5427 200.622C39.4563 205.478 35.2481 210.358 31.1182 215.32C34.0622 217.69 37.115 220.313 40.4006 222.948C44.7503 217.599 49.113 212.366 53.5954 207.045Z" fill="#1A1A1A"/>
<path fill-rule="evenodd" clip-rule="evenodd" d="M41.7017 199.962C38.7621 197.9 35.7963 196.043 32.9763 194.146C29.4665 198.19 25.7958 202.421 22.2729 206.692C24.6708 209.084 27.2188 211.349 29.8691 213.814C33.7618 209.315 37.7263 204.63 41.7017 199.962Z" fill="#1A1A1A"/>
<path fill-rule="evenodd" clip-rule="evenodd" d="M31.2205 193.022C28.5724 191.415 26.44 189.534 24.0857 188.002C20.7413 191.733 17.3664 195.424 14.2026 199.105C16.1305 201.122 18.2694 203.092 20.5628 205.301C24.2075 200.86 27.7651 196.866 31.2183 193.022H31.2205Z" fill="#1A1A1A"/>
<path fill-rule="evenodd" clip-rule="evenodd" d="M22.7541 186.978C20.5477 185.433 18.5436 183.866 16.4374 182.657C13.5151 185.821 10.4449 189.114 7.33984 192.817C9.01965 194.561 10.78 196.264 12.7448 198.246C15.9717 194.593 19.4097 190.625 22.7541 186.978Z" fill="#1A1A1A"/>
<path fill-rule="evenodd" clip-rule="evenodd" d="M15.6934 181.992C13.8482 180.527 12.077 179.294 10.5582 177.874C7.88182 180.772 5.12058 183.776 2.45508 186.597C3.84549 188.238 5.24678 190.051 6.90918 191.828C9.82274 188.419 12.7689 185.206 15.6934 181.99V181.992Z" fill="#1A1A1A"/>
<path fill-rule="evenodd" clip-rule="evenodd" d="M9.47241 176.903C7.85135 175.847 6.54362 174.438 5.24242 173.228C2.69007 175.886 0.113782 178.682 -2.42334 181.527C-1.06339 182.761 -0.00589371 184.408 1.24526 185.907C3.91294 182.949 6.79821 179.824 9.47241 176.905V176.903Z" fill="#1A1A1A"/>
<path fill-rule="evenodd" clip-rule="evenodd" d="M4.52855 172.847C3.11637 171.82 2.19378 170.45 1.03619 169.275C-1.14843 171.547 -3.40921 173.966 -5.50244 176.273C-4.47106 177.563 -3.55935 179.004 -2.51926 180.493C-0.171439 177.937 2.15897 175.375 4.52855 172.847Z" fill="#1A1A1A"/>
<path fill-rule="evenodd" clip-rule="evenodd" d="M0.485623 137.81C1.28854 136.925 2.13932 136.139 2.92918 135.436C2.41566 136.1 1.95654 136.73 1.4452 137.275C0.476919 138.173 -0.495715 139.145 -1.35303 139.922C-0.661085 139.149 -0.145393 138.565 0.4878 137.81H0.485623Z" fill="#1A1A1A"/>
<path fill-rule="evenodd" clip-rule="evenodd" d="M369.163 194.215C351.294 190.454 334.874 186.747 319.41 183.219C313.45 192.83 307.366 202.007 301.67 211.856C316.671 216.03 333.221 221.41 351.546 226.889C357.508 215.547 363.288 204.818 369.165 194.215H369.163Z" fill="#1A1A1A"/>
<path fill-rule="evenodd" clip-rule="evenodd" d="M266.113 183.362C253.639 180.597 242.664 177.87 231.74 175.808C226.383 183.061 220.55 190.575 214.733 198.452C225.391 201.689 236.577 205.164 248.599 209.01C254.2 200.371 260.297 191.499 266.113 183.36V183.362Z" fill="#1A1A1A"/>
<path fill-rule="evenodd" clip-rule="evenodd" d="M251.436 126.906C241.501 126.507 232.206 125.906 223.237 125.43C218.191 130.939 213.251 136.312 208.503 141.896C217.203 142.685 226.442 143.69 236.27 145.126C241.175 138.834 246.071 132.74 251.436 126.906Z" fill="#1A1A1A"/>
<path fill-rule="evenodd" clip-rule="evenodd" d="M304.225 308C291.489 301.246 279.571 294.858 268.348 288.701C265.141 295.005 261.927 301.434 258.75 308H304.222H304.225Z" fill="#1A1A1A"/>
<path fill-rule="evenodd" clip-rule="evenodd" d="M260.723 284.748C246.101 276.973 233.218 269.476 220.613 262.768C214 274.207 207.226 286.509 200.485 298.788C204.611 301.839 208.81 304.899 213.117 308H249.374C253.214 300.054 256.99 292.33 260.723 284.748Z" fill="#1A1A1A"/>
<path fill-rule="evenodd" clip-rule="evenodd" d="M214.781 259.758C203.368 254.157 192.833 248.955 183.154 243.798C176.918 253.266 170.275 263.428 164.276 273.913C173.704 280.444 183.846 287.145 194.998 294.365C201.441 282.272 208.166 271.039 214.781 259.758Z" fill="#1A1A1A"/>
<path fill-rule="evenodd" clip-rule="evenodd" d="M177.856 242.361C168.427 237.54 159.835 233.325 151.688 229.297C146.072 237.278 140.147 245.536 134.191 253.935C142.014 259.262 150.578 265.135 159.597 271.314C165.786 260.892 171.754 251.673 177.856 242.359V242.361Z" fill="#1A1A1A"/>
<path fill-rule="evenodd" clip-rule="evenodd" d="M146.664 226.361C139.135 222.89 132.026 219.505 125.294 216.138C119.922 223.022 114.525 230.286 109.123 237.75C115.496 242.162 122.165 246.378 129.446 250.587C135.088 242.606 140.921 234.439 146.664 226.363V226.361Z" fill="#1A1A1A"/>
<path fill-rule="evenodd" clip-rule="evenodd" d="M121.401 214.167C115.283 210.709 109.425 208.157 103.613 205.63C98.5564 212.066 93.3669 218.642 88.0337 225.288C93.5301 228.371 99.2767 231.951 105.069 235.926C110.435 228.57 116.04 221.198 121.401 214.167Z" fill="#1A1A1A"/>
<path fill-rule="evenodd" clip-rule="evenodd" d="M101.07 204.922C95.9062 202.423 90.808 200.073 85.8448 197.993C81.4494 203.537 76.7995 209.062 72.2104 214.589C76.7168 217.378 81.4886 220.382 86.3278 223.602C91.3063 217.274 96.3327 210.943 101.067 204.922H101.07Z" fill="#1A1A1A"/>
<path fill-rule="evenodd" clip-rule="evenodd" d="M68.2676 189.716C64.166 188.227 60.5845 186.558 57.0268 184.916C53.1994 189.227 49.2196 193.754 45.5532 198.019C48.7845 200.103 51.9265 202.347 55.7822 204.323C59.8251 199.46 64.0028 194.548 68.2676 189.714V189.716Z" fill="#1A1A1A"/>
<path fill-rule="evenodd" clip-rule="evenodd" d="M55.1358 184.146C51.6805 182.51 48.5602 180.88 45.49 179.675C41.9258 183.542 38.6271 187.307 34.939 191.488C37.7503 193.317 40.6442 195.082 43.6361 197.106C47.5549 192.715 51.2366 188.394 55.1358 184.146Z" fill="#1A1A1A"/>
<path fill-rule="evenodd" clip-rule="evenodd" d="M43.9603 179.073C41.1599 177.755 38.6184 176.388 35.9812 175.245C32.6325 178.829 29.3055 182.345 26.3267 185.894C28.5004 187.496 31.0571 189.03 33.5768 190.677C37.154 186.719 40.5768 182.884 43.9581 179.073H43.9603Z" fill="#1A1A1A"/>
<path fill-rule="evenodd" clip-rule="evenodd" d="M34.0602 174.745C31.5056 173.598 29.2144 172.518 26.995 171.281C24.3403 174.148 21.1896 177.517 18.4937 180.601C20.4172 181.992 22.6018 183.377 24.8103 184.946C27.7957 181.482 31.003 178.069 34.0602 174.745Z" fill="#1A1A1A"/>
<path fill-rule="evenodd" clip-rule="evenodd" d="M25.7677 170.655C23.6353 169.707 21.5095 168.77 19.6382 167.816C17.0358 170.577 14.5335 173.308 11.9463 176.007C13.5848 177.245 15.4756 178.387 17.2599 179.915C20.0777 176.734 22.8128 173.696 25.7677 170.657V170.655Z" fill="#1A1A1A"/>
<path fill-rule="evenodd" clip-rule="evenodd" d="M19.0921 167.288C17.2317 166.403 15.6215 165.414 13.8438 164.613C11.5917 166.92 9.2069 169.458 6.80469 171.951C8.28866 173.064 9.72259 174.319 11.3437 175.598C13.8677 172.821 16.4897 170.106 19.0921 167.288Z" fill="#1A1A1A"/>
<path fill-rule="evenodd" clip-rule="evenodd" d="M13.0753 163.834C11.661 162.789 10.2575 161.807 8.8584 161.069C6.55192 163.488 4.46522 165.687 2.36328 167.928C3.46212 169.11 4.68716 170.207 5.97966 171.376C8.38187 168.796 10.7645 166.338 13.0753 163.832V163.834Z" fill="#1A1A1A"/>
<path fill-rule="evenodd" clip-rule="evenodd" d="M8.04479 160.541C6.77188 159.848 5.56424 159.121 4.53503 158.212C2.58106 160.279 0.796805 162.148 -1.30078 164.386C-0.395599 165.392 0.516111 166.375 1.54967 167.39C3.64943 165.208 5.73396 163.062 8.04479 160.541Z" fill="#1A1A1A"/>
<path fill-rule="evenodd" clip-rule="evenodd" d="M202.909 152.941C194.593 151.798 186.668 150.822 178.976 149.619C174.178 155.373 169.346 160.921 164.258 166.697C171.589 168.242 179.392 169.701 187.704 171.752C192.809 165.317 197.926 159.121 202.911 152.941H202.909Z" fill="#1A1A1A"/>
<path fill-rule="evenodd" clip-rule="evenodd" d="M48.5802 123.316C46.3172 123.333 44.1718 123.337 42.1438 123.372C39.7677 125.752 37.3176 128.074 35.0264 130.385C37.0065 130.351 38.7232 130.682 40.8905 130.76C43.3928 128.26 45.9364 125.767 48.5823 123.313L48.5802 123.316Z" fill="#1A1A1A"/>
<path fill-rule="evenodd" clip-rule="evenodd" d="M48.2231 115.921C46.1712 116.17 44.2259 116.358 42.3416 116.512C40.0351 118.676 37.8309 120.756 35.6724 122.798C37.4066 122.809 39.1974 122.788 41.0447 122.714C43.3599 120.511 45.8208 118.187 48.2231 115.921Z" fill="#1A1A1A"/>
<path fill-rule="evenodd" clip-rule="evenodd" d="M442.332 308C436.268 305.444 430.343 302.928 424.564 300.441C423.593 302.923 422.64 305.444 421.7 308H442.334H442.332Z" fill="#1A1A1A"/>
<path fill-rule="evenodd" clip-rule="evenodd" d="M198.446 98.6372C191.274 99.0116 184.464 99.3405 177.977 99.6478C173.978 103.612 170.02 107.633 165.938 111.472C172.427 111.511 178.92 111.42 185.904 111.325C189.956 107.031 194.245 102.833 198.444 98.6372H198.446Z" fill="#1A1A1A"/>
<path fill-rule="evenodd" clip-rule="evenodd" d="M337.707 263.926C319.456 256.469 302.719 249.875 286.791 243.779C280.585 255.24 273.942 267.555 267.884 280.749C283.52 288.916 299.899 297.208 318.209 306.081C324.399 291.744 331.086 277.54 337.705 263.926H337.707Z" fill="#1A1A1A"/>
<path fill-rule="evenodd" clip-rule="evenodd" d="M234.371 223.295C222.823 219.005 211.831 215.19 201.639 211.436C195.703 219.921 189.654 228.917 183.77 238.012C193.512 242.993 204.241 248.053 215.206 253.171C221.594 243.151 227.969 232.838 234.369 223.297L234.371 223.295Z" fill="#1A1A1A"/>
<path fill-rule="evenodd" clip-rule="evenodd" d="M164.293 199.235C156.314 196.537 149.034 194.072 142.101 191.533C137.075 197.718 131.815 204.437 126.77 211.345C133.371 214.53 140.597 217.91 147.893 221.403C153.168 213.73 158.849 206.21 164.295 199.235H164.293Z" fill="#1A1A1A"/>
<path fill-rule="evenodd" clip-rule="evenodd" d="M138.141 190.307C131.532 188.091 125.342 186.132 119.408 184.343C114.438 190.205 109.614 196.156 104.645 202.074C110.289 204.483 116.04 206.902 122.261 209.912C127.651 203.001 132.814 196.344 138.141 190.307Z" fill="#1A1A1A"/>
<path fill-rule="evenodd" clip-rule="evenodd" d="M116.852 183.691C111.351 181.919 106.014 180.175 100.776 178.402C96.4134 183.57 92.0485 188.649 87.5879 193.918C92.4119 196.076 97.5057 198.497 102.689 200.83C107.541 194.985 112.332 189.209 116.85 183.689L116.852 183.691Z" fill="#1A1A1A"/>
<path fill-rule="evenodd" clip-rule="evenodd" d="M97.3162 177.353C92.6228 175.94 88.025 174.581 83.8255 173.228C79.4389 178.112 75.2742 182.657 71.166 187.541C75.1044 189.093 79.3431 190.852 83.9844 193.068C88.3623 187.509 92.9753 182.3 97.3162 177.353Z" fill="#1A1A1A"/>
<path fill-rule="evenodd" clip-rule="evenodd" d="M81.7669 172.791C77.4999 171.616 73.6768 170.27 69.8342 169.167C66.0698 173.228 62.2315 177.595 58.6543 181.826C62.1249 183.343 65.6934 185.029 69.8363 186.433C73.6834 182.042 77.7676 177.288 81.7647 172.791H81.7669Z" fill="#1A1A1A"/>
<path fill-rule="evenodd" clip-rule="evenodd" d="M67.7888 168.508C64.1115 167.52 60.6496 166.663 57.3814 165.708C53.9326 169.467 50.3836 173.165 47.1089 176.846C50.1008 177.982 53.3799 179.322 56.6351 180.93C60.2754 176.669 64.0223 172.616 67.7888 168.508Z" fill="#1A1A1A"/>
<path fill-rule="evenodd" clip-rule="evenodd" d="M55.876 165.237C52.7601 164.38 49.7791 163.471 46.9265 162.475C43.7388 165.905 40.5206 169.324 37.5156 172.659C40.0266 173.862 42.7988 175.057 45.6449 176.176C49.0502 172.575 52.4163 168.872 55.8782 165.237H55.876Z" fill="#1A1A1A"/>
<path fill-rule="evenodd" clip-rule="evenodd" d="M44.97 162.131C42.211 161.296 39.7609 160.355 37.3935 159.61C34.4625 162.547 31.5772 165.557 28.7246 168.476C30.8244 169.777 33.2309 170.952 35.8355 172.003C38.9057 168.64 41.8911 165.399 44.9722 162.131H44.97Z" fill="#1A1A1A"/>
<path fill-rule="evenodd" clip-rule="evenodd" d="M35.653 159.467C33.3595 158.677 31.0792 158.013 28.8684 157.405C26.451 159.933 23.7833 162.694 21.3311 165.379C23.3177 166.197 25.2564 167.128 27.3845 168.037C30.0608 165.23 32.8373 162.408 35.653 159.465V159.467Z" fill="#1A1A1A"/>
<path fill-rule="evenodd" clip-rule="evenodd" d="M28.2657 156.944C26.3574 156.165 24.4644 155.444 22.5191 154.804C20.2083 157.195 17.7125 159.87 15.4321 162.285C17.1511 163.148 18.8179 164.068 20.613 164.955C23.124 162.298 25.7373 159.684 28.2679 156.946L28.2657 156.944Z" fill="#1A1A1A"/>
<path fill-rule="evenodd" clip-rule="evenodd" d="M21.6333 154.265C19.8774 153.611 18.302 153.034 16.6744 152.538C14.418 154.769 12.2073 156.95 10.04 159.275C11.4936 159.974 12.897 160.82 14.3658 161.746C16.7658 159.288 19.1484 156.743 21.6312 154.265H21.6333Z" fill="#1A1A1A"/>
<path fill-rule="evenodd" clip-rule="evenodd" d="M149.464 146.592C143.232 145.955 137.233 145.473 131.48 144.843C127.226 149.42 122.887 154.107 118.56 158.729C124.11 159.66 129.652 160.774 135.876 162.034C140.415 156.786 144.906 151.567 149.464 146.592Z" fill="#1A1A1A"/>
<path fill-rule="evenodd" clip-rule="evenodd" d="M128.867 144.428C123.443 143.746 118.142 143.285 113.381 142.651C109.212 146.927 105.089 151.3 101.218 155.583C105.931 156.496 110.794 157.418 116.047 158.258C120.216 153.772 124.611 148.989 128.867 144.428Z" fill="#1A1A1A"/>
<path fill-rule="evenodd" clip-rule="evenodd" d="M111.018 142.389C106.07 141.913 101.633 141.491 97.3295 141.078C93.6021 144.86 89.692 148.916 85.9712 152.8C90.1098 153.579 94.3898 154.367 98.8961 155.321C102.817 150.902 106.954 146.54 111.018 142.389Z" fill="#1A1A1A"/>
<path fill-rule="evenodd" clip-rule="evenodd" d="M95.2991 140.844C91.0865 140.442 87.0872 140.197 83.2684 139.844C79.7717 143.372 76.0531 147.273 72.6782 150.744C76.3142 151.357 80.1264 151.811 84.0322 152.426C87.5985 148.706 91.5739 144.65 95.3012 140.844H95.2991Z" fill="#1A1A1A"/>
<path fill-rule="evenodd" clip-rule="evenodd" d="M81.3993 139.708C77.7133 139.299 74.2688 138.799 70.8112 138.663C67.5626 141.893 64.2356 145.256 60.9521 148.732C64.0507 149.266 67.3493 149.879 70.907 150.539C74.3297 146.886 77.9591 143.229 81.3993 139.708Z" fill="#1A1A1A"/>
<path fill-rule="evenodd" clip-rule="evenodd" d="M69.2097 138.606C65.9894 138.299 63.0192 138.015 60.0056 137.816C56.8353 140.878 53.6497 144.029 50.895 146.955C53.5366 147.483 56.3653 148.028 59.4899 148.42C62.6689 145.029 65.8327 141.826 69.2076 138.606H69.2097Z" fill="#1A1A1A"/>
<path fill-rule="evenodd" clip-rule="evenodd" d="M58.6502 137.715C55.7628 137.42 52.9493 137.232 50.4296 136.959C47.5161 139.794 44.6482 142.718 41.813 145.542C44.1869 146.098 46.909 146.382 49.4657 146.758C52.4554 143.8 55.4168 140.777 58.6502 137.717V137.715Z" fill="#1A1A1A"/>
<path fill-rule="evenodd" clip-rule="evenodd" d="M48.9784 137.005C46.4173 136.778 44.0325 136.55 41.7717 136.341C39.2955 138.903 36.6866 141.48 34.0581 143.99C36.2188 144.354 38.51 144.906 40.6925 145.393C43.4146 142.564 46.1236 139.879 48.9784 137.005Z" fill="#1A1A1A"/>
<path fill-rule="evenodd" clip-rule="evenodd" d="M40.3857 136.191C38.1967 136.038 36.2406 135.782 34.2366 135.685C31.8496 137.951 29.4517 140.307 27.043 142.699C28.8925 143.04 30.6332 143.454 32.6046 143.778C35.1766 141.262 37.8464 138.689 40.3857 136.189V136.191Z" fill="#1A1A1A"/>
<path fill-rule="evenodd" clip-rule="evenodd" d="M33.0876 135.481C31.2033 135.254 29.5496 135.051 27.7914 134.897C25.5089 137.124 23.2133 139.281 20.9634 141.599C22.5083 141.974 24.1707 142.246 25.8962 142.683C28.2505 140.275 30.705 137.849 33.0898 135.481H33.0876Z" fill="#1A1A1A"/>
<path fill-rule="evenodd" clip-rule="evenodd" d="M27.0514 134.856C25.463 134.594 24.1052 134.259 22.6952 133.993C20.6324 136.055 18.5044 138.145 16.5874 140.082C17.832 140.452 19.2507 140.809 20.5606 141.246C22.6974 139.111 24.9364 136.942 27.0514 134.856Z" fill="#1A1A1A"/>
<path fill-rule="evenodd" clip-rule="evenodd" d="M21.7965 133.811C20.5605 133.567 19.2158 133.493 18.0974 133.192C16.1434 135.118 14.1764 137.027 12.3726 138.866C13.38 139.206 14.3918 139.576 15.5755 139.894C17.5469 137.964 19.6793 135.964 21.7986 133.811H21.7965Z" fill="#1A1A1A"/>
<path fill-rule="evenodd" clip-rule="evenodd" d="M7.74443 134.971C7.36364 134.646 7.04378 134.142 6.77179 133.783C5.47277 135.157 4.17375 136.367 3.09014 137.583C3.07056 138.18 3.27945 138.708 3.54273 139.219C4.96578 137.81 6.27351 136.464 7.74225 134.971H7.74443Z" fill="#1A1A1A"/>
<path fill-rule="evenodd" clip-rule="evenodd" d="M33.0786 123.753C36.1858 123.095 39.2386 122.435 42.744 121.742C43.5687 121.322 44.3455 121.13 45.3377 120.76C41.6169 121.669 38.2312 122.389 34.9586 123.162C34.1927 123.679 33.6813 123.441 33.0786 123.753Z" fill="#1A1A1A"/>
<path fill-rule="evenodd" clip-rule="evenodd" d="M54.2329 120.284C58.6326 119.903 63.0846 119.914 67.9303 119.693C68.8399 119.609 69.8669 119.533 70.9287 119.21C65.8676 119.693 61.2307 119.585 56.757 119.853C55.7038 120.245 54.9009 120.104 54.2329 120.286V120.284Z" fill="#1A1A1A"/>
<path fill-rule="evenodd" clip-rule="evenodd" d="M142.425 129.427C136.813 129.07 131.245 128.87 126.217 128.546C122.187 132.577 118.205 136.678 114.319 140.853C119.291 141.352 124.589 141.835 129.866 142.447C134.026 137.955 138.33 133.497 142.423 129.424L142.425 129.427Z" fill="#1A1A1A"/>
<path fill-rule="evenodd" clip-rule="evenodd" d="M123.771 128.405C118.749 128.325 113.982 128.224 109.506 128.031C105.874 131.757 101.879 135.659 98.3608 139.379C102.595 139.795 107.195 140.117 111.945 140.504C115.792 136.442 119.846 132.337 123.771 128.408V128.405Z" fill="#1A1A1A"/>
<path fill-rule="evenodd" clip-rule="evenodd" d="M107.349 128.014C102.915 127.905 98.748 127.912 94.6377 127.814C91.1475 131.136 87.666 134.67 84.2847 138.31C88.1447 138.52 92.1376 138.799 96.3001 139.286C99.7642 135.583 103.705 131.664 107.352 128.011L107.349 128.014Z" fill="#1A1A1A"/>
<path fill-rule="evenodd" clip-rule="evenodd" d="M92.7227 127.696C88.8082 127.616 85.1592 127.685 81.6168 127.57C78.268 130.779 75.0107 133.978 71.8447 137.152C75.1804 137.299 78.6706 137.719 82.4088 138.124C85.8163 134.649 89.2956 131.058 92.7227 127.696Z" fill="#1A1A1A"/>
<path fill-rule="evenodd" clip-rule="evenodd" d="M79.9087 127.49C76.399 127.557 73.344 127.392 70.1432 127.423C66.9881 130.467 63.9201 133.398 60.9478 136.379C63.9005 136.646 66.9816 136.897 70.2455 137.1C73.4092 133.869 76.6274 130.814 79.9087 127.49Z" fill="#1A1A1A"/>
<path fill-rule="evenodd" clip-rule="evenodd" d="M68.6789 127.315C65.5456 127.28 62.706 127.269 59.8708 127.167C56.9638 129.972 54.1525 132.744 51.3281 135.572C53.8609 136.062 56.6091 136.185 59.4856 136.384C62.5711 133.322 65.4672 130.364 68.6811 127.315H68.6789Z" fill="#1A1A1A"/>
<path fill-rule="evenodd" clip-rule="evenodd" d="M58.548 127.2C55.9021 127.2 53.2126 127.319 50.9192 127.256C48.2646 129.738 45.5447 132.396 42.8574 134.941C45.1661 135.077 47.5422 135.27 50.051 135.566C52.7644 132.755 55.6953 130 58.548 127.2Z" fill="#1A1A1A"/>
<path fill-rule="evenodd" clip-rule="evenodd" d="M156.486 114.473C150.583 114.536 144.886 114.621 139.564 114.753C135.68 118.643 131.807 122.385 127.981 126.243C133.217 126.419 138.724 126.681 144.253 126.919C148.398 122.733 152.556 118.49 156.486 114.476V114.473Z" fill="#1A1A1A"/>
<path fill-rule="evenodd" clip-rule="evenodd" d="M137.079 114.928C131.883 114.945 126.854 115.173 122.176 115.326C118.499 118.899 114.795 122.472 111.229 126.021C115.779 125.975 120.655 126.049 125.568 126.276C129.324 122.329 133.162 118.631 137.079 114.928Z" fill="#1A1A1A"/>
<path fill-rule="evenodd" clip-rule="evenodd" d="M119.811 115.365C115.204 115.456 110.744 115.638 106.531 115.826C103.174 119.052 99.7552 122.381 96.3325 125.88C100.369 125.908 104.601 125.988 108.966 126.055C112.524 122.454 116.227 118.814 119.809 115.365H119.811Z" fill="#1A1A1A"/>
<path fill-rule="evenodd" clip-rule="evenodd" d="M104.597 115.848C100.406 116.086 96.7874 116.159 92.9643 116.376C89.5699 119.529 86.4888 122.556 83.2271 125.707C86.8695 125.724 90.5751 125.685 94.544 125.763C97.7513 122.413 101.176 119.085 104.597 115.848Z" fill="#1A1A1A"/>
<path fill-rule="evenodd" clip-rule="evenodd" d="M91.004 116.54C87.5226 116.607 84.1129 116.705 80.7206 116.904C77.5786 119.931 74.5715 122.805 71.6558 125.633C74.6955 125.787 77.9659 125.808 81.5257 125.731C84.6743 122.567 87.825 119.602 91.004 116.54Z" fill="#1A1A1A"/>
<path fill-rule="evenodd" clip-rule="evenodd" d="M79.0536 116.956C75.7353 117.183 72.8174 117.308 70.017 117.421C67.0512 120.152 64.018 122.907 61.3003 125.577C64.0724 125.622 66.9707 125.713 70.1498 125.633C73.0677 122.816 76.0226 119.948 79.0536 116.956Z" fill="#1A1A1A"/>
<path fill-rule="evenodd" clip-rule="evenodd" d="M68.272 117.75C65.3215 117.994 62.7104 118.131 60.0492 118.289C57.3358 120.855 54.4984 123.502 51.8765 126.15C54.3809 125.958 57.016 125.923 59.7663 125.811C62.4928 123.248 65.204 120.688 68.272 117.752V117.75Z" fill="#1A1A1A"/>
<path fill-rule="evenodd" clip-rule="evenodd" d="M149.59 102.448C144.188 102.755 139.074 102.965 134.131 103.368C130.466 106.86 126.928 110.241 123.351 113.88C128.229 113.551 133.108 113.517 138.395 113.363C141.988 109.717 145.739 106.077 149.588 102.448H149.59Z" fill="#1A1A1A"/>
<path fill-rule="evenodd" clip-rule="evenodd" d="M131.657 103.716C126.817 103.937 122.37 104.353 117.883 104.824C114.473 107.96 111.17 111.156 107.789 114.411C112.147 114.047 116.39 114.036 121.104 113.889C124.655 110.418 128.223 106.887 131.657 103.716Z" fill="#1A1A1A"/>
<path fill-rule="evenodd" clip-rule="evenodd" d="M115.811 105C111.551 105.328 107.602 105.748 103.602 106.181C100.365 109.111 97.2378 112.162 93.9805 115.222C97.8362 114.831 101.622 114.751 105.857 114.439C109.031 111.372 112.406 108.209 115.811 105Z" fill="#1A1A1A"/>
<path fill-rule="evenodd" clip-rule="evenodd" d="M101.655 106.322C97.8861 106.657 94.3372 106.861 90.8144 107.196C87.7725 110.035 84.8198 112.842 81.8018 115.72C85.1918 115.545 88.5362 115.395 92.2897 115.227C95.497 112.206 98.4693 109.269 101.655 106.322Z" fill="#1A1A1A"/>
<path fill-rule="evenodd" clip-rule="evenodd" d="M89.0632 107.408C85.882 107.618 82.7139 107.919 79.4544 108.38C76.593 110.992 73.7273 113.714 70.9443 116.319C73.9079 116.176 76.9803 115.882 80.1398 115.802C83.2187 112.922 86.1801 110.191 89.0632 107.408Z" fill="#1A1A1A"/>
<path fill-rule="evenodd" clip-rule="evenodd" d="M69.7171 110.412C66.9189 110.758 64.2382 111.076 61.7772 111.292C59.2488 113.614 56.5506 116.075 53.9482 118.518C56.4223 118.297 58.9703 118.239 61.5117 118.081C64.0946 115.547 66.8863 112.987 69.7171 110.414V110.412Z" fill="#1A1A1A"/>
<path fill-rule="evenodd" clip-rule="evenodd" d="M60.2667 111.422C57.8688 111.632 55.5819 111.786 53.3625 112.065C51.0386 114.302 48.6951 116.393 46.4604 118.578C48.4231 118.55 50.6643 118.39 52.8033 118.323C55.1924 116.096 57.7839 113.671 60.2667 111.422Z" fill="#1A1A1A"/>
<path fill-rule="evenodd" clip-rule="evenodd" d="M143.746 92.5435C138.885 93.1169 134.198 93.6687 129.474 94.2314C126.128 97.3432 122.862 100.36 119.424 103.524C124.059 102.922 128.408 102.66 133.367 102.126C136.755 98.8494 140.276 95.7635 143.746 92.5435Z" fill="#1A1A1A"/>
<path fill-rule="evenodd" clip-rule="evenodd" d="M127.303 94.4587C122.975 94.9305 118.627 95.5429 114.495 96.0601C111.429 98.9512 108.235 101.87 105.034 104.863C109.081 104.415 112.989 104.101 117.356 103.738C120.788 100.524 124.065 97.5359 127.303 94.4565V94.4587Z" fill="#1A1A1A"/>
<path fill-rule="evenodd" clip-rule="evenodd" d="M112.517 96.2915C108.675 96.7286 104.906 97.2458 101.042 97.8258C98.0975 100.587 95.284 103.115 92.2095 105.943C95.7279 105.608 99.3204 105.324 103.1 105.073C106.24 102.063 109.486 99.0744 112.517 96.2915Z" fill="#1A1A1A"/>
<path fill-rule="evenodd" clip-rule="evenodd" d="M99.3597 98.0876C95.9478 98.6092 92.5381 99.0593 89.3004 99.4964C86.4869 102.076 83.5451 104.664 80.749 107.205C83.9607 106.876 87.1223 106.529 90.4558 106.153C93.5391 103.363 96.457 100.723 99.3597 98.0876Z" fill="#1A1A1A"/>
<path fill-rule="evenodd" clip-rule="evenodd" d="M78.8642 101.717C75.9289 102.189 73.2112 102.513 70.6588 102.842C68.0216 105.255 65.3605 107.631 62.8604 110.061C65.3714 109.799 67.9411 109.54 70.7916 109.176C73.444 106.711 76.0856 104.292 78.8642 101.719V101.717Z" fill="#1A1A1A"/>
<path fill-rule="evenodd" clip-rule="evenodd" d="M68.766 103.567C66.168 103.913 63.8528 104.277 61.4919 104.714C59.0375 106.899 56.6288 109.063 54.0503 111.392C56.2654 111.102 58.6611 110.92 61.0568 110.721C63.5656 108.323 66.1158 105.949 68.7682 103.565L68.766 103.567Z" fill="#1A1A1A"/>
<path fill-rule="evenodd" clip-rule="evenodd" d="M154.175 81.0461C149.051 81.8489 144.212 82.5652 139.559 83.3681C136.217 86.1467 133.047 89.0031 129.618 92.1323C134.307 91.416 139.042 90.9053 143.879 90.2799C147.327 87.0945 150.733 84.0714 154.173 81.0439L154.175 81.0461Z" fill="#1A1A1A"/>
<path fill-rule="evenodd" clip-rule="evenodd" d="M137.351 83.5996C132.771 84.3873 128.397 85.0019 124.106 85.7441C121.134 88.4989 118.02 91.1563 114.865 94.0431C119.028 93.4415 123.325 92.9135 127.671 92.2534C130.854 89.3623 134.035 86.5448 137.351 83.5996Z" fill="#1A1A1A"/>
<path fill-rule="evenodd" clip-rule="evenodd" d="M149.214 73.3618C144.555 74.182 140.09 75.0822 135.726 75.8959C132.586 78.6723 129.515 81.3362 126.441 84.0087C130.56 83.3032 135.031 82.6216 139.723 81.8252C142.821 79.0704 146.055 76.2226 149.216 73.3618H149.214Z" fill="#1A1A1A"/>
<path fill-rule="evenodd" clip-rule="evenodd" d="M199.887 76.2766C193.185 77.2006 186.944 78.0597 181.008 78.6765C177.059 82.0761 173.443 85.5645 169.944 88.8365C175.706 88.3539 181.842 87.6614 188.348 86.9624C192.049 83.433 195.898 79.8559 199.884 76.2788L199.887 76.2766Z" fill="#1A1A1A"/>
<path fill-rule="evenodd" clip-rule="evenodd" d="M19.0331 142.24C17.61 141.848 16.3066 141.433 15.062 141.097C13.1298 143.006 11.1323 144.953 9.23926 147.096C10.201 147.596 11.3347 148.197 12.5314 148.743C14.5985 146.659 16.8223 144.38 19.0331 142.24Z" fill="#1A1A1A"/>
<path fill-rule="evenodd" clip-rule="evenodd" d="M24.3645 143.586C22.6955 143.194 21.1484 142.768 19.6623 142.383C17.3928 144.676 15.2256 146.882 13.1606 148.976C14.3618 149.634 15.6847 150.249 17.1295 150.878C19.4795 148.442 21.9296 145.949 24.3645 143.586Z" fill="#1A1A1A"/>
<path fill-rule="evenodd" clip-rule="evenodd" d="M30.5591 144.99C28.6443 144.65 26.9035 144.179 25.2259 143.7C22.6801 146.273 20.23 148.71 17.9409 151.091C19.5076 151.597 21.0829 152.192 22.9521 152.664C25.4652 150.097 28.0785 147.518 30.5612 144.99H30.5591Z" fill="#1A1A1A"/>
<path fill-rule="evenodd" clip-rule="evenodd" d="M38.4684 146.568C36.2294 146.085 34.0557 145.574 31.8972 145.232C29.3579 147.749 26.6967 150.571 24.127 153.235C26.07 153.763 27.9653 154.535 29.9258 155.302C32.7153 152.302 35.6615 149.452 38.4684 146.565V146.568Z" fill="#1A1A1A"/>
<path fill-rule="evenodd" clip-rule="evenodd" d="M47.0613 147.987C44.4437 147.596 41.8391 147.204 39.6458 146.704C36.7823 149.543 33.8383 152.43 30.9922 155.406C33.2051 156.126 35.5399 156.752 37.9508 157.433C40.836 154.343 43.8736 151.22 47.0613 147.987Z" fill="#1A1A1A"/>
<path fill-rule="evenodd" clip-rule="evenodd" d="M56.8618 149.857C53.8481 149.392 51.0804 148.868 48.4388 148.312C45.1401 151.658 42.0503 154.871 39.165 157.916C41.589 158.608 44.2132 159.472 46.907 160.283C50.2905 156.71 53.4195 153.428 56.8618 149.855V149.857Z" fill="#1A1A1A"/>
<path fill-rule="evenodd" clip-rule="evenodd" d="M67.926 152.179C64.4989 151.595 61.3155 150.935 58.2105 150.305C54.8901 153.832 51.587 157.228 48.2622 160.738C51.1083 161.664 54.1481 162.566 57.2618 163.475C60.7824 159.64 64.4489 155.797 67.926 152.179Z" fill="#1A1A1A"/>
<path fill-rule="evenodd" clip-rule="evenodd" d="M81.9239 154.207C77.9898 153.423 74.2233 152.837 70.7201 152.326C67.1255 155.905 63.4786 159.822 59.9058 163.646C63.2197 164.436 66.7969 165.286 70.3654 166.464C74.2951 162.153 78.0355 158.149 81.9261 154.207H81.9239Z" fill="#1A1A1A"/>
<path fill-rule="evenodd" clip-rule="evenodd" d="M96.3178 156.752C91.8854 155.888 87.5205 154.912 83.6909 154.157C79.7655 158.275 75.7923 162.335 72.041 166.544C75.8206 167.697 79.8199 168.957 84.1848 169.987C88.1842 165.544 92.2161 161.233 96.3178 156.754V156.752Z" fill="#1A1A1A"/>
<path fill-rule="evenodd" clip-rule="evenodd" d="M113.427 159.803C108.294 158.911 103.202 158.139 98.8044 156.873C94.6636 161.435 90.4314 166.035 86.5039 170.515C90.8688 171.776 95.4535 173.06 100.308 174.28C104.747 169.305 108.996 164.596 113.429 159.803H113.427Z" fill="#1A1A1A"/>
<path fill-rule="evenodd" clip-rule="evenodd" d="M132.812 163.897C126.78 162.653 121.234 161.54 116.021 160.359C111.545 165.271 107.023 170.179 102.606 175.297C108.046 176.801 113.063 178.677 118.821 180.146C123.577 174.682 128.28 169.242 132.812 163.897Z" fill="#1A1A1A"/>
<path fill-rule="evenodd" clip-rule="evenodd" d="M155.217 169.019C148.163 167.639 141.912 166.334 135.608 164.964C130.904 170.359 126.21 175.851 121.51 181.22C127.396 183.163 133.63 185.065 140.171 187.013C145.345 180.713 150.263 174.791 155.217 169.019Z" fill="#1A1A1A"/>
<path fill-rule="evenodd" clip-rule="evenodd" d="M388.424 137.834C383.983 134.289 379.635 130.712 375.662 127.447C369.243 131.076 362.852 134.456 356.398 138.288C360 142.043 363.566 145.979 367.876 150.006C374.835 145.899 381.789 141.815 388.421 137.834H388.424Z" fill="#1A1A1A"/>
<path fill-rule="evenodd" clip-rule="evenodd" d="M170.579 130.559C168.813 128.782 167.087 127.129 165.292 125.713C162.792 127.462 160.187 129.325 157.615 131.097C159.212 132.779 160.72 134.586 162.341 136.618C165.109 134.551 167.87 132.5 170.582 130.559H170.579Z" fill="#1A1A1A"/>
<path fill-rule="evenodd" clip-rule="evenodd" d="M100.658 64.9223C99.9708 63.8749 99.3398 62.7842 98.7589 61.6914C96.509 63.5503 94.1067 65.5628 91.748 67.5234C92.1158 68.7807 92.6358 69.9298 93.2233 71.1611C95.6908 69.0901 98.1996 66.9846 100.656 64.9223H100.658Z" fill="#1A1A1A"/>
<path fill-rule="evenodd" clip-rule="evenodd" d="M465.912 246.62C460.362 242.281 455.126 238.124 450.041 234.465C443.42 236.499 436.923 238.908 430.105 241.206C435.049 245.205 439.915 249.527 444.915 254.183C452.026 251.513 459.3 249.107 465.915 246.618L465.912 246.62Z" fill="#1A1A1A"/>
<path fill-rule="evenodd" clip-rule="evenodd" d="M116.503 78.9968C115.957 78.3974 115.526 77.8131 115.098 77.2505C113.635 78.3108 112.165 79.3517 110.744 80.3904C111.072 81.0332 111.412 81.7884 111.792 82.4203C113.366 81.2842 114.88 80.1567 116.503 78.9947V78.9968Z" fill="#1A1A1A"/>
<path fill-rule="evenodd" clip-rule="evenodd" d="M166.889 51.5725C165.571 51.012 164.322 50.5164 163.086 50.0598C161.221 51.3258 159.358 52.635 157.452 54.0156C158.492 54.641 159.635 55.1972 160.934 55.9156C162.875 54.403 164.883 52.9899 166.889 51.5746V51.5725Z" fill="#1A1A1A"/>
<path fill-rule="evenodd" clip-rule="evenodd" d="M447.334 102.926C442.108 100.78 437.249 98.9057 432.632 97.1399C426.661 99.6112 421.008 101.979 415.599 104.489C419.77 106.568 424.163 108.698 429.078 111.316C435.389 108.38 441.52 105.467 447.334 102.926Z" fill="#1A1A1A"/>
<path fill-rule="evenodd" clip-rule="evenodd" d="M145.515 48.2269C144.719 47.8525 144.122 47.3613 143.491 46.9912C141.973 47.9823 140.526 49.1011 139.063 50.1809C139.599 50.6549 140.093 51.2153 140.739 51.6481C142.195 50.538 143.853 49.363 145.515 48.2269Z" fill="#1A1A1A"/>
<path fill-rule="evenodd" clip-rule="evenodd" d="M112.289 40.0513C111.867 39.744 111.405 39.5081 110.99 39.2246C109.895 40.0707 108.696 40.945 107.646 41.7522C108.009 42.0811 108.324 42.4143 108.649 42.7952C109.848 41.8928 111.092 40.9731 112.289 40.0513Z" fill="#1A1A1A"/>
<path fill-rule="evenodd" clip-rule="evenodd" d="M32.0646 123.378C31.8861 122.924 31.6511 122.469 31.5293 122.032C30.6546 122.629 29.8386 123.311 28.9639 123.934C29.0313 124.462 29.1532 124.962 29.275 125.462C30.2607 124.763 31.1376 124.071 32.0646 123.378Z" fill="#1A1A1A"/>
<path fill-rule="evenodd" clip-rule="evenodd" d="M469.927 173.371C466.206 171.594 463.195 169.917 460.018 168.312C455.353 169.629 450.886 170.822 446.434 172.112C449.164 173.758 452.256 175.678 455.529 177.496C460.405 176.171 465.181 174.73 469.927 173.371Z" fill="#1A1A1A"/>
<path fill-rule="evenodd" clip-rule="evenodd" d="M196.112 42.9771C194.806 42.5919 193.473 42.3279 192.343 41.9341C190.526 43.1178 188.607 44.3469 186.888 45.4874C187.983 45.9678 189.008 46.3768 190.217 46.8269C192.026 45.5869 194.141 44.2193 196.112 42.9771Z" fill="#1A1A1A"/>
<path fill-rule="evenodd" clip-rule="evenodd" d="M148.002 13.7154C147.173 13.5618 146.344 13.4298 145.53 13.3887C144.164 14.2543 142.862 15.2432 141.555 16.1911C142.329 16.3252 143.108 16.4724 143.889 16.6433C145.286 15.6219 146.644 14.6503 148.002 13.7154Z" fill="#1A1A1A"/>
<path fill-rule="evenodd" clip-rule="evenodd" d="M127.361 49.562C126.608 49.324 125.866 49.1552 125.172 48.9431C124.004 49.7827 122.681 50.7046 121.454 51.5356C122.152 51.7823 122.796 52.0117 123.499 52.2627C124.822 51.3452 126.043 50.4817 127.363 49.562H127.361Z" fill="#1A1A1A"/>
<path fill-rule="evenodd" clip-rule="evenodd" d="M0.374901 146.546C0.161661 146.2 0.00281978 145.927 -0.212596 145.581C-0.902362 146.053 -1.58995 146.529 -2.22314 146.973C-2.06865 147.33 -1.96856 147.665 -1.75315 147.955C-1.0612 147.507 -0.312689 147.024 0.374901 146.546Z" fill="#1A1A1A"/>
<path fill-rule="evenodd" clip-rule="evenodd" d="M109.621 68.8692C108.868 68.6225 108.163 68.339 107.471 68.1572C106.37 68.9038 105.16 69.7045 103.999 70.4489C104.697 70.6956 105.395 70.9553 106.046 71.2496C107.201 70.4641 108.413 69.6742 109.621 68.8692Z" fill="#1A1A1A"/>
<path fill-rule="evenodd" clip-rule="evenodd" d="M226.751 79.1959C225.117 78.7696 223.55 78.3346 222.044 77.9321C220.062 78.999 218.132 80.0139 216.041 81.1305C217.588 81.4833 219.107 81.9658 220.624 82.4138C222.595 81.3145 224.753 80.2238 226.751 79.1959Z" fill="#1A1A1A"/>
<path fill-rule="evenodd" clip-rule="evenodd" d="M91.3913 85.7681C90.6928 85.5236 89.9878 85.2011 89.3459 84.9436C88.2645 85.6642 87.2897 86.3242 86.2583 87.0275C86.8458 87.3002 87.4377 87.6075 88.0861 87.9364C89.1697 87.1877 90.2576 86.5341 91.3913 85.7659V85.7681Z" fill="#1A1A1A"/>
<path fill-rule="evenodd" clip-rule="evenodd" d="M100.256 57.1231C99.6446 56.9651 99.0462 56.9045 98.4391 56.792C97.5492 57.3979 96.6157 58.0752 95.7192 58.6444C96.2197 58.7526 96.8289 58.9084 97.3381 59.0815C98.326 58.3998 99.2638 57.742 100.256 57.1253V57.1231Z" fill="#1A1A1A"/>
<path fill-rule="evenodd" clip-rule="evenodd" d="M549 213.243C544.035 211.75 538.784 209.977 533.477 208.439C528.562 209.49 523.252 210.239 518.261 211.159C523.033 212.617 528.2 214.327 532.974 216.021C538.551 215.084 543.71 214.221 549 213.245V213.243Z" fill="#1A1A1A"/>
<path fill-rule="evenodd" clip-rule="evenodd" d="M167.4 22.6377C166.306 22.681 165.32 22.6918 164.335 22.7005C163.179 23.434 161.974 24.2001 160.729 25.0203C161.71 24.9748 162.609 25.057 163.599 25.0484C164.844 24.2304 166.09 23.4038 167.398 22.6377H167.4Z" fill="#1A1A1A"/>
<path fill-rule="evenodd" clip-rule="evenodd" d="M8.72138 143.389C8.38629 143.14 8.0512 142.883 7.83143 142.645C7.20694 143.043 6.5237 143.497 5.95361 143.861C6.17338 144.127 6.44972 144.354 6.72607 144.64C7.4093 144.179 8.03814 143.794 8.72138 143.391V143.389Z" fill="#1A1A1A"/>
<path fill-rule="evenodd" clip-rule="evenodd" d="M303.767 116.865C301.295 116.263 298.647 115.904 296.125 115.359C293.641 116.222 291.38 116.977 289.158 117.865C291.447 118.284 293.926 118.875 296.513 119.466C298.93 118.574 301.413 117.717 303.765 116.865H303.767Z" fill="#1A1A1A"/>
<path fill-rule="evenodd" clip-rule="evenodd" d="M295.329 161.698C293.099 160.307 290.893 158.922 288.673 157.717C285.566 158.909 282.398 160.311 279.208 161.664C281.273 163.038 283.325 164.377 285.398 165.94C288.856 164.373 292.131 163.059 295.329 161.696V161.698Z" fill="#1A1A1A"/>
<path fill-rule="evenodd" clip-rule="evenodd" d="M1.67572 154.735C1.46248 154.122 1.30799 153.497 1.15133 152.962C0.278782 153.588 -0.654687 154.28 -1.59033 155.001C-1.49677 155.626 -1.40103 156.336 -1.25306 156.977C-0.313067 156.239 0.681328 155.488 1.67572 154.733V154.735Z" fill="#1A1A1A"/>
<path fill-rule="evenodd" clip-rule="evenodd" d="M241.325 106.335C239.315 105.188 237.461 104.164 235.74 103.167C233.094 104.632 230.337 106.187 227.582 107.771C229.314 108.834 230.861 110.111 232.791 111.208C235.72 109.565 238.516 107.932 241.325 106.335Z" fill="#1A1A1A"/>
</g>
<defs>
<clipPath id="clip0_181_178">
<rect width="566" height="308" fill="white" transform="translate(-17)"/>
</clipPath>
</defs>
</svg>
