<svg width="725" height="367" viewBox="0 0 725 367" fill="none" xmlns="http://www.w3.org/2000/svg">
<g clip-path="url(#clip0_181_3)">
<path fill-rule="evenodd" clip-rule="evenodd" d="M661.36 319.094C665.505 312.215 668.886 304.649 672.202 297.9C673.967 300.619 679.023 330.363 686.007 377H670.895C666.319 342.765 662.916 321.536 661.36 319.094Z" fill="#1A1A1A"/>
<path fill-rule="evenodd" clip-rule="evenodd" d="M674.301 299.362C677.651 292.976 680.765 286.894 683.914 282.274C685.628 284.751 691.746 321.209 700.158 377H686.498C680.385 331.205 675.943 301.983 674.301 299.362Z" fill="#1A1A1A"/>
<path fill-rule="evenodd" clip-rule="evenodd" d="M685.422 280.419C688.245 276.402 690.941 272.588 693.602 268.961C696.755 287.163 699.946 305.123 703.009 322.972C706.125 341.099 709.199 359.134 712.193 376.961L711.992 376.997H699.712C695.135 345.276 690.275 312.974 685.422 280.416V280.419Z" fill="#1A1A1A"/>
<path fill-rule="evenodd" clip-rule="evenodd" d="M694.709 267.073C697.067 263.317 699.316 259.976 701.457 256.828C705.515 276.809 709.567 296.572 713.469 315.955C717.408 335.535 721.274 354.89 725 373.869V374.647C721.46 375.314 717.823 375.976 714.088 376.579C711.042 358.611 707.82 340.36 704.57 321.951C701.376 303.852 697.976 285.579 694.709 267.073Z" fill="#1A1A1A"/>
<path fill-rule="evenodd" clip-rule="evenodd" d="M702.521 255.433C704.539 252.424 706.128 249.387 707.533 246.162C712.472 267.646 717.469 288.942 722.093 309.903L725 323.083V365.551C721.7 348.972 718.275 332.152 714.813 315.158C710.822 295.542 706.694 275.552 702.519 255.436L702.521 255.433Z" fill="#1A1A1A"/>
<path fill-rule="evenodd" clip-rule="evenodd" d="M708.561 244.944C710.273 242.242 711.808 239.676 713.163 236.85C717.14 252.95 721.106 268.912 725 284.715V316.597L723.328 309.195C718.581 288.167 713.617 266.669 708.561 244.947V244.944Z" fill="#1A1A1A"/>
<path fill-rule="evenodd" clip-rule="evenodd" d="M713.921 235.673C715.276 233.442 716.201 230.821 717.121 228.213C719.777 238.145 722.402 248.02 725 257.827V280.134C721.332 265.473 717.608 250.644 713.921 235.676V235.673Z" fill="#1A1A1A"/>
<path fill-rule="evenodd" clip-rule="evenodd" d="M718.11 227.513C719.027 225.245 719.855 222.92 720.443 220.675L725 236.864V253.349C722.726 244.784 720.429 236.166 718.11 227.513Z" fill="#1A1A1A"/>
<path fill-rule="evenodd" clip-rule="evenodd" d="M720.816 218.895C721.552 216.708 722.135 214.615 722.642 212.741L725 220.783V233.716L720.816 218.895Z" fill="#1A1A1A"/>
<path fill-rule="evenodd" clip-rule="evenodd" d="M722.804 211.573C723.227 209.591 723.417 207.598 723.684 205.674L725 210.034V219.014L722.804 211.573Z" fill="#1A1A1A"/>
<path fill-rule="evenodd" clip-rule="evenodd" d="M723.793 204.946C723.98 203.05 723.854 200.921 723.659 198.9L725 203.216V208.927L723.793 204.946Z" fill="#1A1A1A"/>
<path fill-rule="evenodd" clip-rule="evenodd" d="M723.581 197.513C723.562 195.908 723.225 194.034 722.887 192.049L725 198.82V202.062L723.581 197.513Z" fill="#1A1A1A"/>
<path fill-rule="evenodd" clip-rule="evenodd" d="M722.854 191.542C722.536 189.851 722.001 188.223 721.385 186.377L724.997 197.987V198.371L722.851 191.542H722.854Z" fill="#1A1A1A"/>
<path fill-rule="evenodd" clip-rule="evenodd" d="M721.034 185.286C720.287 183.68 719.462 181.923 718.885 180.55C720.917 187.124 722.96 193.699 725 200.259V198.023C723.668 193.779 722.341 189.538 721.034 185.286Z" fill="#1A1A1A"/>
<path fill-rule="evenodd" clip-rule="evenodd" d="M718.25 179.503C717.374 177.978 716.209 176.262 715.05 174.642C718.372 185.496 721.703 196.345 725.003 207.163V201.35C722.745 194.07 720.485 186.775 718.252 179.503H718.25Z" fill="#1A1A1A"/>
<path fill-rule="evenodd" clip-rule="evenodd" d="M545.032 377C553.067 369.205 560.704 361.952 567.951 354.55C572.41 361.866 577.073 369.415 581.725 377H545.032Z" fill="#1A1A1A"/>
<path fill-rule="evenodd" clip-rule="evenodd" d="M572.087 350.81C580.382 342.107 588.077 334.893 595.318 328.229C603.499 339.485 611.08 350.411 619.079 362.522C615.503 366.896 611.852 371.807 608.031 377.003H588.487C582.98 368.015 577.517 359.325 572.087 350.81Z" fill="#1A1A1A"/>
<path fill-rule="evenodd" clip-rule="evenodd" d="M598.71 324.661C605.885 318.266 612.203 312.187 618.338 306.338C625.509 315.936 632.867 326.173 640.042 336.271C634.565 343.261 628.519 350.408 622.301 358.306C614.397 346.893 606.827 335.828 598.71 324.661Z" fill="#1A1A1A"/>
<path fill-rule="evenodd" clip-rule="evenodd" d="M621.309 303.648C626.967 298.701 632.39 293.679 637.469 289.015C643.826 297.422 650.421 305.588 657.102 314.3C652.45 320.033 647.706 326.084 642.65 332.891C635.529 323.089 628.33 312.977 621.306 303.648H621.309Z" fill="#1A1A1A"/>
<path fill-rule="evenodd" clip-rule="evenodd" d="M655.095 271.854C658.989 268.004 662.821 264.568 666.522 261.246C671.771 267.45 677.504 274.274 682.735 280.87C679.77 284.851 676.328 289.103 672.897 293.947C666.938 286.158 661.118 279.364 655.095 271.854Z" fill="#1A1A1A"/>
<path fill-rule="evenodd" clip-rule="evenodd" d="M668.674 260.106C671.982 256.873 675.33 253.938 678.24 250.661C682.933 256.189 687.855 261.886 692.429 267.414C689.935 271.148 687.153 274.891 684.249 278.88C679.173 272.668 673.763 266.188 668.674 260.106Z" fill="#1A1A1A"/>
<path fill-rule="evenodd" clip-rule="evenodd" d="M680.347 248.773C683.037 245.802 685.615 243.098 688.084 240.41C692.374 245.285 696.797 250.436 700.863 255.239C698.893 258.32 696.565 261.443 694.127 264.881C689.556 259.411 684.72 253.932 680.344 248.773H680.347Z" fill="#1A1A1A"/>
<path fill-rule="evenodd" clip-rule="evenodd" d="M689.636 238.912C691.986 236.609 694.076 234.212 696.309 231.989C700.024 236.166 703.943 240.446 707.664 244.623C706.097 247.632 704.266 250.589 702.583 253.769C698.268 248.93 693.767 243.801 689.636 238.912Z" fill="#1A1A1A"/>
<path fill-rule="evenodd" clip-rule="evenodd" d="M697.175 230.826C699.14 228.711 700.93 226.256 702.471 224.069C705.93 227.795 709.183 231.466 712.878 235.432C711.359 238.107 709.824 240.634 708.199 243.38C704.567 239.333 700.813 235.133 697.173 230.826H697.175Z" fill="#1A1A1A"/>
<path fill-rule="evenodd" clip-rule="evenodd" d="M703.463 222.347C705.136 220.401 706.571 218.554 708.071 216.65C711.279 220.124 714.445 223.698 717.215 226.743C716.293 229.148 715.039 231.407 714.021 233.993C710.573 230.112 706.998 226.117 703.461 222.347H703.463Z" fill="#1A1A1A"/>
<path fill-rule="evenodd" clip-rule="evenodd" d="M708.67 216.049C709.999 214.153 711.084 212.096 712.246 210.433C714.799 213.085 717.377 216.019 719.891 218.854C719.144 221.054 718.475 223.393 717.561 225.661C714.629 222.436 711.711 219.208 708.67 216.049Z" fill="#1A1A1A"/>
<path fill-rule="evenodd" clip-rule="evenodd" d="M712.739 209.306C713.891 207.714 714.576 205.876 715.256 204.168C717.472 206.479 719.783 208.899 721.948 211.26C721.525 213.281 720.864 215.271 720.446 217.655C717.937 214.945 715.2 211.894 712.737 209.306H712.739Z" fill="#1A1A1A"/>
<path fill-rule="evenodd" clip-rule="evenodd" d="M715.755 203.429C716.273 201.649 716.875 200.151 717.394 198.474C719.362 200.522 721.112 202.529 723.177 204.694C722.904 206.532 722.637 208.514 722.213 210.427C719.966 207.958 717.812 205.619 715.755 203.432V203.429Z" fill="#1A1A1A"/>
<path fill-rule="evenodd" clip-rule="evenodd" d="M717.637 197.275C717.926 195.634 718.294 194.18 718.353 192.445C720.153 194.391 721.725 196.093 723.222 197.677C723.417 199.725 723.37 201.519 723.261 203.526C721.511 201.621 719.451 199.313 717.637 197.278V197.275Z" fill="#1A1A1A"/>
<path fill-rule="evenodd" clip-rule="evenodd" d="M691.119 152.161C688.845 150.94 686.71 149.792 684.368 148.856C684.371 149.191 684.302 149.393 684.09 149.371C686.576 150.534 689.21 152.073 691.278 153.177C691.269 152.726 691.269 152.596 691.119 152.161Z" fill="#1A1A1A"/>
<path fill-rule="evenodd" clip-rule="evenodd" d="M718.631 186.551C718.325 184.99 718.102 183.492 717.739 182.177C718.659 183.085 719.891 184.414 720.9 185.554C721.441 187.321 721.976 189.048 722.525 190.836C721.042 189.267 719.947 188.01 718.634 186.551H718.631Z" fill="#1A1A1A"/>
<path fill-rule="evenodd" clip-rule="evenodd" d="M717.319 180.992C716.806 179.547 716.229 178.08 715.652 176.668C716.569 177.723 717.26 178.637 718.18 179.655C719.139 181.35 719.883 182.961 720.635 184.735C719.467 183.362 718.542 182.294 717.316 180.992H717.319Z" fill="#1A1A1A"/>
<path fill-rule="evenodd" clip-rule="evenodd" d="M706.449 163.904C705.122 162.523 703.731 161.252 702.274 160.112C702.644 160.626 703.018 161.166 703.316 161.601C704.927 163.032 706.466 164.361 707.94 165.728C707.419 165.155 707.118 164.726 706.449 163.904Z" fill="#1A1A1A"/>
<path fill-rule="evenodd" clip-rule="evenodd" d="M462.426 364.106C476.465 354.669 488.62 345.73 501.304 337.514C508.869 350.331 516.731 363.001 524.672 377.003H469.335C467.053 372.657 464.75 368.358 462.426 364.106Z" fill="#1A1A1A"/>
<path fill-rule="evenodd" clip-rule="evenodd" d="M506.99 333.874C518.147 326.02 528.582 318.499 538.24 311.606C546.339 323.645 554.361 335.64 562.349 348.376C552.973 357.044 543.376 366.694 532.409 376.064C524 361.307 515.259 347.532 506.99 333.874Z" fill="#1A1A1A"/>
<path fill-rule="evenodd" clip-rule="evenodd" d="M542.861 308.392C552.114 303.044 560.303 297.145 568.266 291.653C575.613 301.474 583.202 311.772 590.538 322.516C583.068 329.505 575.407 336.639 566.819 344.822C558.636 332.005 550.988 319.93 542.861 308.392Z" fill="#1A1A1A"/>
<path fill-rule="evenodd" clip-rule="evenodd" d="M571.892 288.732C579.563 283.799 586.556 278.8 593.292 274.6C600.034 283.007 607.209 292.539 614.057 302.261C607.785 307.761 601.102 313.129 593.889 319.291C586.829 309.026 579.289 298.825 571.892 288.732Z" fill="#1A1A1A"/>
<path fill-rule="evenodd" clip-rule="evenodd" d="M596.503 272.552C602.919 268.751 608.716 264.704 614.466 261.398C620.86 268.903 626.989 276.707 633.52 285.092C628.386 289.56 622.736 294.116 617.067 299.179C610.288 290.302 603.262 280.898 596.503 272.552Z" fill="#1A1A1A"/>
<path fill-rule="evenodd" clip-rule="evenodd" d="M672.972 144.576C674.463 144.424 675.812 144.264 677.016 144.031C679.486 146.459 681.752 148.723 684.171 151.026C682.964 151.192 681.827 151.586 680.545 151.884C678.053 149.537 675.648 147.095 672.972 144.576Z" fill="#1A1A1A"/>
<path fill-rule="evenodd" clip-rule="evenodd" d="M634.573 247.856C639.113 245.146 643.224 242.275 647.449 239.64C652.684 245.852 658.074 252.094 663.364 258.442C659.593 261.473 655.683 264.828 651.474 268.2C645.903 261.357 640.314 254.663 634.573 247.856Z" fill="#1A1A1A"/>
<path fill-rule="evenodd" clip-rule="evenodd" d="M649.808 238.796C653.573 236.158 657.372 233.783 660.984 231.355C665.48 236.529 670.182 241.941 674.694 247.405C671.623 250.464 668.359 253.362 664.964 256.515C659.978 250.76 654.9 244.767 649.808 238.796Z" fill="#1A1A1A"/>
<path fill-rule="evenodd" clip-rule="evenodd" d="M663.233 229.918C666.625 227.861 669.357 225.456 672.372 223.496C676.656 228.268 680.979 232.991 685.032 237.7C682.562 240.28 679.823 242.799 676.885 245.625C672.216 239.945 667.659 234.835 663.236 229.918H663.233Z" fill="#1A1A1A"/>
<path fill-rule="evenodd" clip-rule="evenodd" d="M674.078 222.187C676.905 220.21 679.472 218.206 682.17 216.658C685.913 220.706 689.845 224.919 693.823 229.655C691.671 231.887 689.416 234.065 686.899 236.601C682.766 231.928 678.362 226.851 674.078 222.187Z" fill="#1A1A1A"/>
<path fill-rule="evenodd" clip-rule="evenodd" d="M683.123 215.808C685.486 213.934 687.755 212.356 689.701 210.541C693.129 214.247 696.666 218.09 700.08 221.699C698.299 223.798 696.504 226.117 694.375 228.39C690.643 224.03 686.869 219.919 683.123 215.806V215.808Z" fill="#1A1A1A"/>
<path fill-rule="evenodd" clip-rule="evenodd" d="M691.091 209.298C693.168 207.947 694.843 206.145 696.509 204.597C699.779 207.997 703.079 211.573 706.329 215.213C704.587 216.791 703.232 218.898 701.629 220.816C698.212 217.032 694.517 213.035 691.091 209.3V209.298Z" fill="#1A1A1A"/>
<path fill-rule="evenodd" clip-rule="evenodd" d="M697.424 204.11C699.232 202.795 700.414 201.043 701.897 199.54C704.695 202.446 707.591 205.541 710.272 208.492C708.951 210.142 707.784 211.986 706.451 213.89C703.444 210.621 700.459 207.343 697.424 204.11Z" fill="#1A1A1A"/>
<path fill-rule="evenodd" clip-rule="evenodd" d="M710.111 189.579C710.716 188.14 711.251 186.861 711.711 185.541C713.631 187.567 715.328 189.361 717.109 191.26C716.82 192.799 716.371 194.216 716.234 196.018C714.055 193.773 712.109 191.658 710.108 189.582L710.111 189.579Z" fill="#1A1A1A"/>
<path fill-rule="evenodd" clip-rule="evenodd" d="M712.207 185.076C712.36 183.536 712.823 182.482 712.906 181.195C714.359 182.706 715.894 184.339 717.358 185.931C717.433 187.398 717.291 188.932 717.143 190.393C715.515 188.613 713.896 186.803 712.207 185.076Z" fill="#1A1A1A"/>
<path fill-rule="evenodd" clip-rule="evenodd" d="M712.681 176.14C712.561 175.182 712.21 173.77 711.948 172.71C712.929 173.792 713.993 175.013 714.902 176.01C715.624 177.507 716.128 178.93 716.566 180.37C715.273 179.055 714.046 177.61 712.683 176.143L712.681 176.14Z" fill="#1A1A1A"/>
<path fill-rule="evenodd" clip-rule="evenodd" d="M710.206 168.904C709.665 167.973 708.829 166.578 707.703 165.191C708.302 165.975 709.052 166.819 709.359 167.423C710.708 169.036 711.694 170.321 712.762 171.774C712.004 170.875 711.028 169.828 710.203 168.904H710.206Z" fill="#1A1A1A"/>
<path fill-rule="evenodd" clip-rule="evenodd" d="M702.602 159.289C701.574 158.157 700.484 157.152 699.472 156.253C700.13 157.103 700.718 157.908 701.373 158.606C702.614 159.755 703.859 160.997 704.958 161.991C704.071 161.003 703.411 160.256 702.6 159.289H702.602Z" fill="#1A1A1A"/>
<path fill-rule="evenodd" clip-rule="evenodd" d="M705.281 165.023C705.108 164.159 704.718 163.229 704.545 162.357C705.582 163.577 706.694 164.804 707.734 165.908C708.124 166.919 708.67 168.023 709.074 169.114C707.879 167.843 706.541 166.484 705.281 165.023Z" fill="#1A1A1A"/>
<path fill-rule="evenodd" clip-rule="evenodd" d="M230.357 231.444C253.245 226.632 274.277 221.89 294.086 217.378C301.72 229.672 309.513 241.412 316.81 254.01C297.595 259.35 276.396 266.232 252.922 273.241C245.285 258.733 237.882 245.008 230.354 231.444H230.357Z" fill="#1A1A1A"/>
<path fill-rule="evenodd" clip-rule="evenodd" d="M362.355 217.561C378.334 214.023 392.392 210.535 406.384 207.897C413.246 217.176 420.718 226.787 428.168 236.864C414.517 241.005 400.188 245.451 384.789 250.37C377.615 239.319 369.805 227.969 362.355 217.558V217.561Z" fill="#1A1A1A"/>
<path fill-rule="evenodd" clip-rule="evenodd" d="M381.155 145.34C393.881 144.831 405.788 144.061 417.276 143.452C423.74 150.5 430.067 157.374 436.148 164.516C425.005 165.526 413.171 166.811 400.581 168.649C394.299 160.599 388.028 152.803 381.155 145.34Z" fill="#1A1A1A"/>
<path fill-rule="evenodd" clip-rule="evenodd" d="M313.538 377C329.851 368.36 345.117 360.189 359.493 352.313C363.601 360.377 367.718 368.601 371.787 377H313.541H313.538Z" fill="#1A1A1A"/>
<path fill-rule="evenodd" clip-rule="evenodd" d="M369.259 347.255C387.989 337.309 404.491 327.72 420.638 319.138C429.108 333.771 437.784 349.509 446.419 365.216C441.134 369.119 435.755 373.033 430.239 377H383.797C378.877 366.835 374.042 356.955 369.259 347.255Z" fill="#1A1A1A"/>
<path fill-rule="evenodd" clip-rule="evenodd" d="M428.107 315.288C442.726 308.124 456.221 301.469 468.619 294.872C476.607 306.983 485.116 319.983 492.8 333.395C480.723 341.749 467.732 350.323 453.448 359.557C445.195 344.089 436.58 329.719 428.107 315.288Z" fill="#1A1A1A"/>
<path fill-rule="evenodd" clip-rule="evenodd" d="M475.406 293.034C487.483 286.866 498.489 281.474 508.924 276.322C516.118 286.531 523.707 297.095 531.336 307.838C521.316 314.654 510.346 322.167 498.793 330.07C490.866 316.738 483.221 304.946 475.406 293.031V293.034Z" fill="#1A1A1A"/>
<path fill-rule="evenodd" clip-rule="evenodd" d="M515.36 272.566C525.003 268.125 534.109 263.796 542.732 259.489C549.614 268.294 556.526 277.587 563.447 287.135C555.283 292.779 546.74 298.172 537.415 303.556C530.187 293.347 522.715 282.899 515.36 272.568V272.566Z" fill="#1A1A1A"/>
<path fill-rule="evenodd" clip-rule="evenodd" d="M547.719 256.967C555.557 252.543 563.06 249.279 570.504 246.046C576.982 254.279 583.629 262.691 590.46 271.193C583.42 275.137 576.059 279.716 568.64 284.801C561.766 275.392 554.587 265.961 547.719 256.967Z" fill="#1A1A1A"/>
<path fill-rule="evenodd" clip-rule="evenodd" d="M573.762 245.141C580.376 241.943 586.907 238.937 593.264 236.277C598.894 243.369 604.85 250.436 610.729 257.506C604.956 261.075 598.844 264.917 592.645 269.036C586.268 260.942 579.83 252.842 573.765 245.141H573.762Z" fill="#1A1A1A"/>
<path fill-rule="evenodd" clip-rule="evenodd" d="M615.779 225.688C621.033 223.784 625.621 221.649 630.178 219.548C635.08 225.063 640.178 230.854 644.875 236.31C640.736 238.976 636.711 241.846 631.772 244.374C626.593 238.154 621.242 231.87 615.779 225.686V225.688Z" fill="#1A1A1A"/>
<path fill-rule="evenodd" clip-rule="evenodd" d="M632.6 218.563C637.026 216.47 641.022 214.386 644.955 212.844C649.521 217.791 653.746 222.607 658.47 227.956C654.869 230.295 651.162 232.554 647.33 235.142C642.31 229.525 637.594 223.997 632.6 218.563Z" fill="#1A1A1A"/>
<path fill-rule="evenodd" clip-rule="evenodd" d="M646.915 212.074C650.502 210.388 653.757 208.639 657.135 207.177C661.425 211.761 665.686 216.26 669.502 220.8C666.718 222.848 663.443 224.811 660.215 226.918C655.633 221.854 651.249 216.949 646.917 212.074H646.915Z" fill="#1A1A1A"/>
<path fill-rule="evenodd" clip-rule="evenodd" d="M659.596 206.538C662.868 205.07 665.803 203.689 668.646 202.106C672.047 205.774 676.082 210.084 679.536 214.028C677.072 215.808 674.273 217.58 671.444 219.587C667.62 215.155 663.512 210.79 659.596 206.538Z" fill="#1A1A1A"/>
<path fill-rule="evenodd" clip-rule="evenodd" d="M670.218 201.306C672.95 200.093 675.673 198.895 678.07 197.674C681.403 201.206 684.608 204.7 687.922 208.152C685.824 209.735 683.402 211.197 681.116 213.151C677.507 209.082 674.003 205.195 670.218 201.309V201.306Z" fill="#1A1A1A"/>
<path fill-rule="evenodd" clip-rule="evenodd" d="M678.769 196.998C681.152 195.866 683.215 194.601 685.492 193.577C688.377 196.528 691.431 199.775 694.508 202.964C692.607 204.387 690.771 205.992 688.694 207.628C685.461 204.077 682.103 200.602 678.769 196.998Z" fill="#1A1A1A"/>
<path fill-rule="evenodd" clip-rule="evenodd" d="M686.476 192.58C688.287 191.243 690.085 189.986 691.877 189.042C694.831 192.137 697.504 194.95 700.197 197.818C698.789 199.329 697.22 200.733 695.564 202.228C692.487 198.928 689.435 195.783 686.476 192.578V192.58Z" fill="#1A1A1A"/>
<path fill-rule="evenodd" clip-rule="evenodd" d="M692.92 188.367C694.55 187.481 696.097 186.551 697.415 185.388C699.918 188.032 702.204 190.424 704.891 193.286C703.731 194.573 702.563 195.83 701.239 197.129C698.55 194.338 695.88 191.592 692.92 188.367Z" fill="#1A1A1A"/>
<path fill-rule="evenodd" clip-rule="evenodd" d="M443.314 178.645C453.967 177.183 464.118 175.935 473.97 174.396C480.116 181.756 486.306 188.854 492.823 196.243C483.433 198.219 473.438 200.085 462.791 202.709C456.252 194.477 449.697 186.551 443.311 178.645H443.314Z" fill="#1A1A1A"/>
<path fill-rule="evenodd" clip-rule="evenodd" d="M640.997 140.748C643.896 140.77 646.644 140.776 649.242 140.82C652.285 143.865 655.424 146.835 658.358 149.792C655.822 149.747 653.623 150.171 650.847 150.271C647.642 147.073 644.384 143.884 640.994 140.745L640.997 140.748Z" fill="#1A1A1A"/>
<path fill-rule="evenodd" clip-rule="evenodd" d="M641.454 131.289C644.083 131.607 646.574 131.848 648.988 132.045C651.942 134.813 654.766 137.473 657.531 140.086C655.309 140.1 653.016 140.072 650.649 139.978C647.684 137.16 644.531 134.187 641.454 131.289Z" fill="#1A1A1A"/>
<path fill-rule="evenodd" clip-rule="evenodd" d="M449.03 109.179C458.217 109.658 466.941 110.079 475.249 110.472C480.372 115.543 485.442 120.687 490.671 125.597C482.36 125.647 474.043 125.531 465.096 125.409C459.906 119.917 454.413 114.547 449.033 109.179H449.03Z" fill="#1A1A1A"/>
<path fill-rule="evenodd" clip-rule="evenodd" d="M270.649 320.619C294.028 311.08 315.467 302.645 335.869 294.847C343.818 309.508 352.327 325.262 360.086 342.14C340.058 352.587 319.079 363.195 295.625 374.545C287.695 356.205 279.13 338.034 270.652 320.619H270.649Z" fill="#1A1A1A"/>
<path fill-rule="evenodd" clip-rule="evenodd" d="M403.014 268.643C417.806 263.156 431.887 258.276 444.942 253.473C452.545 264.327 460.294 275.835 467.83 287.47C455.352 293.842 441.608 300.314 427.564 306.861C419.381 294.044 411.214 280.851 403.017 268.646L403.014 268.643Z" fill="#1A1A1A"/>
<path fill-rule="evenodd" clip-rule="evenodd" d="M492.778 237.866C502.999 234.414 512.324 231.261 521.204 228.014C527.643 235.925 534.379 244.521 540.843 253.357C532.386 257.432 523.13 261.756 513.785 266.224C507.029 256.407 499.751 246.788 492.775 237.866H492.778Z" fill="#1A1A1A"/>
<path fill-rule="evenodd" clip-rule="evenodd" d="M526.277 226.444C534.742 223.609 542.671 221.104 550.272 218.815C556.638 226.314 562.817 233.926 569.183 241.498C561.953 244.579 554.587 247.674 546.618 251.524C539.714 242.682 533.1 234.167 526.277 226.444Z" fill="#1A1A1A"/>
<path fill-rule="evenodd" clip-rule="evenodd" d="M553.547 217.982C560.593 215.714 567.43 213.483 574.139 211.216C579.727 217.827 585.318 224.324 591.032 231.064C584.853 233.824 578.328 236.922 571.689 239.906C565.473 232.429 559.336 225.041 553.55 217.979L553.547 217.982Z" fill="#1A1A1A"/>
<path fill-rule="evenodd" clip-rule="evenodd" d="M578.57 209.873C584.582 208.066 590.471 206.327 595.851 204.597C601.47 210.845 606.804 216.658 612.066 222.906C607.022 224.891 601.592 227.142 595.647 229.976C590.039 222.865 584.131 216.202 578.57 209.873Z" fill="#1A1A1A"/>
<path fill-rule="evenodd" clip-rule="evenodd" d="M598.487 204.038C603.953 202.535 608.85 200.813 613.772 199.401C618.594 204.597 623.511 210.183 628.093 215.595C623.647 217.536 619.076 219.692 613.769 221.489C608.842 215.872 603.61 209.79 598.49 204.038H598.487Z" fill="#1A1A1A"/>
<path fill-rule="evenodd" clip-rule="evenodd" d="M616.392 198.56C621.102 197.295 625.537 196.198 629.723 194.978C634.141 199.786 638.687 204.517 642.881 209.226C639.049 210.679 634.849 212.393 630.679 214.449C626.016 208.999 621.217 203.814 616.392 198.56Z" fill="#1A1A1A"/>
<path fill-rule="evenodd" clip-rule="evenodd" d="M631.652 194.374C635.643 193.278 639.461 192.115 643.115 190.842C647.199 195.229 651.321 199.603 655.17 203.869C651.954 205.408 648.403 206.936 644.757 208.367C640.395 203.761 636.083 199.025 631.649 194.374H631.652Z" fill="#1A1A1A"/>
<path fill-rule="evenodd" clip-rule="evenodd" d="M645.621 190.402C649.155 189.333 652.294 188.129 655.326 187.177C659.08 190.933 662.776 194.784 666.43 198.518C663.741 200.182 660.658 201.685 657.322 203.03C653.389 198.729 649.565 194.582 645.618 190.402H645.621Z" fill="#1A1A1A"/>
<path fill-rule="evenodd" clip-rule="evenodd" d="M657.556 186.994C660.493 185.983 663.414 185.134 666.246 184.356C669.343 187.589 672.76 191.121 675.901 194.557C673.356 195.603 670.873 196.793 668.147 197.956C664.719 194.366 661.162 190.756 657.556 186.991V186.994Z" fill="#1A1A1A"/>
<path fill-rule="evenodd" clip-rule="evenodd" d="M667.018 183.766C669.463 182.77 671.887 181.848 674.379 181.028C677.339 184.087 680.536 187.509 683.457 190.598C681.255 191.703 679.12 192.879 676.821 194.014C673.604 190.615 670.257 187.271 667.015 183.769L667.018 183.766Z" fill="#1A1A1A"/>
<path fill-rule="evenodd" clip-rule="evenodd" d="M675.514 180.339C677.763 179.503 679.781 178.764 681.866 178.13C684.756 180.984 687.588 183.775 690.364 186.748C688.502 187.642 686.704 188.724 684.823 189.909C681.749 186.764 678.697 183.509 675.516 180.339H675.514Z" fill="#1A1A1A"/>
<path fill-rule="evenodd" clip-rule="evenodd" d="M511.773 170.523C519.755 169.709 527.439 169.092 534.809 168.286C540.258 174.141 545.815 180.137 551.359 186.05C544.249 187.24 537.15 188.666 529.179 190.277C523.364 183.564 517.612 176.887 511.773 170.523Z" fill="#1A1A1A"/>
<path fill-rule="evenodd" clip-rule="evenodd" d="M538.156 167.755C545.105 166.883 551.894 166.293 557.992 165.482C563.333 170.952 568.614 176.547 573.573 182.025C567.536 183.193 561.306 184.372 554.578 185.446C549.238 179.708 543.608 173.59 538.156 167.755Z" fill="#1A1A1A"/>
<path fill-rule="evenodd" clip-rule="evenodd" d="M561.019 165.147C567.357 164.538 573.04 163.998 578.553 163.469C583.328 168.308 588.336 173.496 593.103 178.465C587.801 179.462 582.319 180.469 576.547 181.69C571.524 176.037 566.226 170.457 561.019 165.147Z" fill="#1A1A1A"/>
<path fill-rule="evenodd" clip-rule="evenodd" d="M581.154 163.171C586.55 162.656 591.673 162.343 596.564 161.892C601.043 166.404 605.806 171.395 610.129 175.835C605.472 176.619 600.589 177.2 595.586 177.986C591.018 173.228 585.926 168.04 581.151 163.171H581.154Z" fill="#1A1A1A"/>
<path fill-rule="evenodd" clip-rule="evenodd" d="M598.958 161.717C603.68 161.194 608.092 160.555 612.521 160.38C616.682 164.513 620.944 168.815 625.149 173.261C621.18 173.944 616.955 174.728 612.398 175.572C608.014 170.899 603.365 166.221 598.958 161.717Z" fill="#1A1A1A"/>
<path fill-rule="evenodd" clip-rule="evenodd" d="M614.572 160.308C618.697 159.915 622.502 159.553 626.362 159.298C630.423 163.215 634.503 167.245 638.032 170.988C634.648 171.664 631.025 172.361 627.022 172.862C622.95 168.524 618.898 164.427 614.575 160.308H614.572Z" fill="#1A1A1A"/>
<path fill-rule="evenodd" clip-rule="evenodd" d="M628.098 159.168C631.797 158.791 635.401 158.55 638.628 158.202C642.36 161.828 646.034 165.568 649.666 169.18C646.625 169.892 643.138 170.255 639.863 170.736C636.033 166.952 632.24 163.085 628.098 159.171V159.168Z" fill="#1A1A1A"/>
<path fill-rule="evenodd" clip-rule="evenodd" d="M640.487 158.26C643.768 157.969 646.823 157.678 649.719 157.41C652.89 160.688 656.232 163.984 659.599 167.196C656.831 167.661 653.897 168.367 651.101 168.989C647.614 165.371 644.144 161.936 640.487 158.26Z" fill="#1A1A1A"/>
<path fill-rule="evenodd" clip-rule="evenodd" d="M651.494 157.219C654.298 157.022 656.804 156.696 659.371 156.571C662.428 159.469 665.5 162.484 668.585 165.543C666.216 165.98 663.986 166.509 661.461 166.924C658.167 163.705 654.747 160.413 651.494 157.216V157.219Z" fill="#1A1A1A"/>
<path fill-rule="evenodd" clip-rule="evenodd" d="M660.842 156.311C663.256 156.02 665.374 155.76 667.626 155.563C670.55 158.412 673.49 161.172 676.372 164.137C674.393 164.616 672.264 164.964 670.054 165.524C667.038 162.443 663.894 159.339 660.839 156.311H660.842Z" fill="#1A1A1A"/>
<path fill-rule="evenodd" clip-rule="evenodd" d="M668.574 155.511C670.608 155.176 672.347 154.747 674.153 154.406C676.796 157.044 679.522 159.718 681.977 162.196C680.383 162.669 678.566 163.126 676.888 163.685C674.151 160.953 671.283 158.179 668.574 155.511Z" fill="#1A1A1A"/>
<path fill-rule="evenodd" clip-rule="evenodd" d="M675.305 154.174C676.888 153.861 678.61 153.767 680.043 153.382C682.546 155.846 685.065 158.287 687.376 160.64C686.086 161.075 684.789 161.548 683.273 161.955C680.748 159.486 678.017 156.928 675.302 154.174H675.305Z" fill="#1A1A1A"/>
<path fill-rule="evenodd" clip-rule="evenodd" d="M693.304 155.657C693.792 155.242 694.202 154.597 694.55 154.138C696.214 155.896 697.878 157.443 699.266 158.999C699.291 159.763 699.023 160.438 698.686 161.092C696.863 159.289 695.188 157.568 693.307 155.657H693.304Z" fill="#1A1A1A"/>
<path fill-rule="evenodd" clip-rule="evenodd" d="M660.853 141.307C656.873 140.465 652.963 139.621 648.472 138.735C647.416 138.198 646.421 137.952 645.15 137.479C649.916 138.641 654.253 139.563 658.445 140.551C659.426 141.213 660.081 140.908 660.853 141.307Z" fill="#1A1A1A"/>
<path fill-rule="evenodd" clip-rule="evenodd" d="M633.756 136.87C628.121 136.382 622.418 136.396 616.211 136.114C615.046 136.006 613.73 135.909 612.37 135.497C618.853 136.114 624.793 135.975 630.523 136.319C631.872 136.82 632.901 136.64 633.756 136.872V136.87Z" fill="#1A1A1A"/>
<path fill-rule="evenodd" clip-rule="evenodd" d="M520.789 148.565C527.977 148.109 535.11 147.854 541.551 147.439C546.713 152.596 551.813 157.842 556.791 163.182C550.422 163.821 543.636 164.438 536.877 165.222C531.548 159.475 526.035 153.772 520.792 148.563L520.789 148.565Z" fill="#1A1A1A"/>
<path fill-rule="evenodd" clip-rule="evenodd" d="M544.684 147.259C551.117 147.156 557.223 147.026 562.957 146.78C567.608 151.547 572.726 156.538 577.232 161.296C571.809 161.828 565.916 162.24 559.832 162.736C554.904 157.54 549.712 152.289 544.684 147.261V147.259Z" fill="#1A1A1A"/>
<path fill-rule="evenodd" clip-rule="evenodd" d="M565.719 146.758C571.399 146.619 576.736 146.628 582.001 146.503C586.472 150.752 590.931 155.273 595.263 159.929C590.318 160.197 585.204 160.554 579.872 161.177C575.435 156.441 570.387 151.428 565.716 146.755L565.719 146.758Z" fill="#1A1A1A"/>
<path fill-rule="evenodd" clip-rule="evenodd" d="M584.454 146.351C589.468 146.248 594.142 146.337 598.68 146.19C602.969 150.295 607.141 154.387 611.197 158.448C606.924 158.636 602.453 159.173 597.665 159.691C593.3 155.245 588.844 150.653 584.454 146.351Z" fill="#1A1A1A"/>
<path fill-rule="evenodd" clip-rule="evenodd" d="M600.867 146.088C605.363 146.174 609.276 145.963 613.376 146.002C617.418 149.897 621.348 153.645 625.155 157.46C621.373 157.8 617.426 158.121 613.245 158.381C609.193 154.248 605.07 150.34 600.867 146.088Z" fill="#1A1A1A"/>
<path fill-rule="evenodd" clip-rule="evenodd" d="M615.252 145.864C619.266 145.819 622.903 145.805 626.535 145.675C630.258 149.263 633.859 152.809 637.477 156.427C634.233 157.053 630.713 157.211 627.028 157.465C623.076 153.548 619.366 149.764 615.249 145.864H615.252Z" fill="#1A1A1A"/>
<path fill-rule="evenodd" clip-rule="evenodd" d="M628.229 145.717C631.619 145.717 635.063 145.869 638.001 145.789C641.402 148.964 644.885 152.363 648.328 155.619C645.37 155.793 642.327 156.04 639.113 156.419C635.638 152.823 631.883 149.299 628.229 145.717Z" fill="#1A1A1A"/>
<path fill-rule="evenodd" clip-rule="evenodd" d="M502.779 129.437C510.34 129.517 517.637 129.625 524.454 129.794C529.429 134.771 534.391 139.557 539.291 144.493C532.585 144.717 525.53 145.052 518.448 145.357C513.138 140.003 507.812 134.575 502.779 129.44V129.437Z" fill="#1A1A1A"/>
<path fill-rule="evenodd" clip-rule="evenodd" d="M527.637 130.018C534.293 130.04 540.734 130.331 546.727 130.527C551.437 135.098 556.181 139.668 560.749 144.208C554.921 144.15 548.675 144.244 542.382 144.535C537.571 139.485 532.654 134.755 527.637 130.018Z" fill="#1A1A1A"/>
<path fill-rule="evenodd" clip-rule="evenodd" d="M549.756 130.577C555.657 130.694 561.371 130.926 566.767 131.167C571.067 135.294 575.446 139.552 579.83 144.028C574.66 144.064 569.239 144.167 563.648 144.252C559.091 139.646 554.347 134.99 549.759 130.577H549.756Z" fill="#1A1A1A"/>
<path fill-rule="evenodd" clip-rule="evenodd" d="M569.244 131.195C574.612 131.499 579.248 131.593 584.145 131.87C588.493 135.903 592.439 139.776 596.617 143.807C591.951 143.829 587.205 143.779 582.121 143.879C578.013 139.593 573.626 135.336 569.244 131.195Z" fill="#1A1A1A"/>
<path fill-rule="evenodd" clip-rule="evenodd" d="M586.656 132.081C591.115 132.166 595.483 132.291 599.828 132.546C603.853 136.418 607.705 140.095 611.439 143.713C607.546 143.909 603.357 143.937 598.797 143.837C594.764 139.79 590.728 135.998 586.656 132.081Z" fill="#1A1A1A"/>
<path fill-rule="evenodd" clip-rule="evenodd" d="M601.963 132.612C606.213 132.903 609.951 133.063 613.538 133.207C617.337 136.701 621.222 140.225 624.704 143.641C621.153 143.699 617.44 143.815 613.368 143.713C609.631 140.108 605.846 136.441 601.963 132.612Z" fill="#1A1A1A"/>
<path fill-rule="evenodd" clip-rule="evenodd" d="M615.774 133.628C619.553 133.941 622.898 134.115 626.306 134.317C629.782 137.6 633.416 140.986 636.775 144.374C633.567 144.128 630.192 144.084 626.669 143.94C623.176 140.662 619.703 137.387 615.774 133.631V133.628Z" fill="#1A1A1A"/>
<path fill-rule="evenodd" clip-rule="evenodd" d="M511.611 114.054C518.532 114.447 525.082 114.715 531.414 115.23C536.108 119.698 540.64 124.022 545.222 128.678C538.973 128.258 532.724 128.213 525.951 128.017C521.35 123.352 516.544 118.696 511.614 114.054H511.611Z" fill="#1A1A1A"/>
<path fill-rule="evenodd" clip-rule="evenodd" d="M534.583 115.676C540.781 115.958 546.478 116.49 552.226 117.093C556.593 121.105 560.824 125.193 565.155 129.357C559.573 128.892 554.138 128.878 548.101 128.689C543.552 124.249 538.981 119.731 534.583 115.676Z" fill="#1A1A1A"/>
<path fill-rule="evenodd" clip-rule="evenodd" d="M554.879 117.317C560.336 117.738 565.395 118.275 570.518 118.829C574.665 122.577 578.67 126.48 582.843 130.395C577.904 129.893 573.054 129.791 567.63 129.392C563.564 125.47 559.241 121.423 554.879 117.317Z" fill="#1A1A1A"/>
<path fill-rule="evenodd" clip-rule="evenodd" d="M573.013 119.009C577.84 119.438 582.386 119.698 586.898 120.127C590.795 123.759 594.577 127.349 598.443 131.031C594.1 130.807 589.817 130.616 585.009 130.4C580.9 126.536 577.093 122.779 573.013 119.009Z" fill="#1A1A1A"/>
<path fill-rule="evenodd" clip-rule="evenodd" d="M589.142 120.398C593.217 120.667 597.275 121.052 601.45 121.641C605.115 124.983 608.786 128.465 612.351 131.798C608.554 131.615 604.619 131.239 600.572 131.136C596.628 127.452 592.835 123.958 589.142 120.398Z" fill="#1A1A1A"/>
<path fill-rule="evenodd" clip-rule="evenodd" d="M613.923 124.241C617.507 124.684 620.941 125.091 624.093 125.367C627.332 128.338 630.788 131.485 634.122 134.611C630.953 134.328 627.689 134.253 624.433 134.051C621.125 130.81 617.549 127.535 613.923 124.243V124.241Z" fill="#1A1A1A"/>
<path fill-rule="evenodd" clip-rule="evenodd" d="M626.027 125.534C629.099 125.802 632.028 125.999 634.871 126.356C637.848 129.218 640.849 131.892 643.712 134.688C641.198 134.652 638.327 134.447 635.587 134.362C632.527 131.513 629.207 128.41 626.027 125.534Z" fill="#1A1A1A"/>
<path fill-rule="evenodd" clip-rule="evenodd" d="M519.097 101.384C525.324 102.117 531.328 102.823 537.378 103.543C541.665 107.523 545.849 111.382 550.252 115.43C544.316 114.66 538.744 114.325 532.392 113.641C528.053 109.45 523.543 105.503 519.097 101.384Z" fill="#1A1A1A"/>
<path fill-rule="evenodd" clip-rule="evenodd" d="M540.16 103.833C545.704 104.437 551.273 105.22 556.565 105.882C560.493 109.58 564.584 113.315 568.684 117.143C563.5 116.57 558.494 116.169 552.9 115.704C548.505 111.593 544.307 107.77 540.16 103.831V103.833Z" fill="#1A1A1A"/>
<path fill-rule="evenodd" clip-rule="evenodd" d="M559.099 106.178C564.021 106.737 568.849 107.399 573.799 108.141C577.57 111.673 581.174 114.906 585.112 118.525C580.605 118.095 576.003 117.733 571.162 117.412C567.14 113.561 562.982 109.738 559.099 106.178Z" fill="#1A1A1A"/>
<path fill-rule="evenodd" clip-rule="evenodd" d="M575.953 108.476C580.323 109.143 584.691 109.719 588.838 110.278C592.442 113.578 596.21 116.888 599.792 120.138C595.678 119.718 591.628 119.275 587.358 118.793C583.408 115.225 579.671 111.848 575.953 108.476Z" fill="#1A1A1A"/>
<path fill-rule="evenodd" clip-rule="evenodd" d="M602.205 113.118C605.965 113.722 609.446 114.137 612.716 114.558C616.094 117.644 619.503 120.684 622.705 123.792C619.489 123.458 616.197 123.125 612.546 122.66C609.148 119.507 605.765 116.412 602.205 113.121V113.118Z" fill="#1A1A1A"/>
<path fill-rule="evenodd" clip-rule="evenodd" d="M615.141 115.485C618.468 115.928 621.434 116.393 624.458 116.952C627.602 119.748 630.687 122.516 633.99 125.495C631.153 125.124 628.084 124.891 625.016 124.637C621.802 121.57 618.535 118.533 615.138 115.482L615.141 115.485Z" fill="#1A1A1A"/>
<path fill-rule="evenodd" clip-rule="evenodd" d="M505.738 86.6759C512.302 87.7029 518.501 88.6192 524.46 89.6462C528.741 93.2006 532.802 96.8547 537.194 100.858C531.188 99.9412 525.123 99.2879 518.927 98.4879C514.51 94.4131 510.148 90.5459 505.741 86.6731L505.738 86.6759Z" fill="#1A1A1A"/>
<path fill-rule="evenodd" clip-rule="evenodd" d="M527.289 89.9424C533.156 90.95 538.758 91.7362 544.255 92.6857C548.062 96.2097 552.05 99.609 556.092 103.302C550.76 102.532 545.255 101.857 539.689 101.013C535.612 97.3142 531.537 93.7099 527.289 89.9424Z" fill="#1A1A1A"/>
<path fill-rule="evenodd" clip-rule="evenodd" d="M512.093 76.8459C518.06 77.8951 523.78 79.0467 529.371 80.0875C533.393 83.6392 537.325 87.0469 541.264 90.4657C535.988 89.5632 530.26 88.6912 524.251 87.6725C520.282 84.1485 516.14 80.5056 512.09 76.8459H512.093Z" fill="#1A1A1A"/>
<path fill-rule="evenodd" clip-rule="evenodd" d="M447.186 80.5747C455.77 81.7567 463.764 82.8557 471.367 83.6447C476.426 87.9936 481.058 92.456 485.54 96.6415C478.16 96.0242 470.3 95.1384 461.966 94.2442C457.225 89.7292 452.295 85.1534 447.189 80.5775L447.186 80.5747Z" fill="#1A1A1A"/>
<path fill-rule="evenodd" clip-rule="evenodd" d="M678.845 164.956C680.667 164.455 682.337 163.923 683.931 163.494C686.406 165.936 688.965 168.427 691.39 171.168C690.158 171.807 688.706 172.577 687.173 173.275C684.525 170.609 681.676 167.694 678.845 164.956Z" fill="#1A1A1A"/>
<path fill-rule="evenodd" clip-rule="evenodd" d="M672.016 166.678C674.154 166.177 676.135 165.631 678.039 165.139C680.946 168.073 683.722 170.894 686.367 173.573C684.829 174.415 683.134 175.201 681.283 176.007C678.273 172.89 675.135 169.701 672.016 166.678Z" fill="#1A1A1A"/>
<path fill-rule="evenodd" clip-rule="evenodd" d="M664.081 168.474C666.534 168.04 668.763 167.436 670.912 166.824C674.173 170.116 677.312 173.233 680.244 176.278C678.237 176.926 676.219 177.687 673.825 178.29C670.606 175.007 667.258 171.708 664.078 168.474H664.081Z" fill="#1A1A1A"/>
<path fill-rule="evenodd" clip-rule="evenodd" d="M653.95 170.492C656.818 169.875 659.602 169.222 662.367 168.784C665.619 172.004 669.028 175.614 672.32 179.021C669.831 179.697 667.403 180.685 664.892 181.665C661.319 177.828 657.545 174.182 653.95 170.49V170.492Z" fill="#1A1A1A"/>
<path fill-rule="evenodd" clip-rule="evenodd" d="M642.943 172.309C646.296 171.808 649.632 171.306 652.441 170.667C656.109 174.299 659.88 177.992 663.526 181.798C660.691 182.72 657.701 183.52 654.612 184.392C650.917 180.439 647.026 176.444 642.943 172.309Z" fill="#1A1A1A"/>
<path fill-rule="evenodd" clip-rule="evenodd" d="M630.39 174.7C634.25 174.105 637.795 173.435 641.179 172.724C645.404 177.003 649.362 181.114 653.058 185.009C649.953 185.895 646.591 186.999 643.141 188.038C638.807 183.467 634.799 179.268 630.39 174.697V174.7Z" fill="#1A1A1A"/>
<path fill-rule="evenodd" clip-rule="evenodd" d="M616.217 177.67C620.606 176.923 624.684 176.079 628.661 175.273C632.915 179.785 637.145 184.129 641.404 188.619C637.759 189.804 633.865 190.958 629.877 192.121C625.367 187.215 620.67 182.299 616.217 177.67Z" fill="#1A1A1A"/>
<path fill-rule="evenodd" clip-rule="evenodd" d="M598.287 180.264C603.326 179.262 608.151 178.512 612.638 177.859C617.242 182.438 621.914 187.448 626.49 192.34C622.245 193.35 617.663 194.438 613.092 195.944C608.059 190.429 603.267 185.308 598.284 180.264H598.287Z" fill="#1A1A1A"/>
<path fill-rule="evenodd" clip-rule="evenodd" d="M579.849 183.52C585.527 182.415 591.118 181.167 596.023 180.201C601.051 185.469 606.141 190.662 610.946 196.046C606.104 197.522 600.982 199.133 595.391 200.45C590.268 194.767 585.103 189.253 579.849 183.523V183.52Z" fill="#1A1A1A"/>
<path fill-rule="evenodd" clip-rule="evenodd" d="M557.934 187.423C564.509 186.282 571.031 185.294 576.664 183.675C581.968 189.51 587.389 195.396 592.419 201.126C586.828 202.74 580.956 204.381 574.738 205.942C569.052 199.578 563.608 193.555 557.931 187.423H557.934Z" fill="#1A1A1A"/>
<path fill-rule="evenodd" clip-rule="evenodd" d="M533.103 192.661C540.829 191.069 547.933 189.646 554.611 188.135C560.345 194.418 566.136 200.697 571.794 207.244C564.826 209.168 558.399 211.568 551.024 213.447C544.932 206.457 538.909 199.498 533.103 192.661Z" fill="#1A1A1A"/>
<path fill-rule="evenodd" clip-rule="evenodd" d="M504.403 199.213C513.439 197.447 521.447 195.777 529.521 194.025C535.547 200.926 541.559 207.952 547.58 214.82C540.04 217.306 532.055 219.739 523.677 222.231C517.049 214.172 510.75 206.596 504.403 199.213Z" fill="#1A1A1A"/>
<path fill-rule="evenodd" clip-rule="evenodd" d="M205.685 159.32C211.374 154.786 216.942 150.21 222.032 146.032C230.254 150.675 238.44 154.999 246.707 159.901C242.094 164.704 237.526 169.74 232.004 174.891C223.091 169.637 214.183 164.414 205.688 159.32H205.685Z" fill="#1A1A1A"/>
<path fill-rule="evenodd" clip-rule="evenodd" d="M484.726 150.013C486.989 147.74 489.199 145.625 491.499 143.815C494.701 146.052 498.038 148.435 501.332 150.702C499.286 152.853 497.355 155.165 495.278 157.764C491.733 155.12 488.196 152.496 484.723 150.013H484.726Z" fill="#1A1A1A"/>
<path fill-rule="evenodd" clip-rule="evenodd" d="M574.289 66.0497C575.17 64.7099 575.978 63.3147 576.722 61.9167C579.604 64.2947 582.681 66.8691 585.703 69.3771C585.232 70.9855 584.565 72.4554 583.813 74.0305C580.652 71.3813 577.439 68.6879 574.292 66.0497H574.289Z" fill="#1A1A1A"/>
<path fill-rule="evenodd" clip-rule="evenodd" d="M106.428 298.482C113.538 292.931 120.244 287.614 126.758 282.933C135.239 285.535 143.562 288.616 152.294 291.556C145.961 296.671 139.729 302.2 133.324 308.157C124.216 304.741 114.898 301.663 106.425 298.479L106.428 298.482Z" fill="#1A1A1A"/>
<path fill-rule="evenodd" clip-rule="evenodd" d="M553.993 84.0543C554.693 83.2875 555.244 82.5401 555.793 81.8203C557.666 83.1767 559.551 84.5083 561.371 85.837C560.95 86.6592 560.515 87.6253 560.027 88.4336C558.012 86.9803 556.072 85.5381 553.993 84.0515V84.0543Z" fill="#1A1A1A"/>
<path fill-rule="evenodd" clip-rule="evenodd" d="M489.453 48.9726C491.142 48.2556 492.742 47.6217 494.325 47.0376C496.714 48.657 499.099 50.3318 501.541 52.0979C500.209 52.898 498.745 53.6094 497.082 54.5284C494.595 52.5934 492.023 50.7858 489.453 48.9754V48.9726Z" fill="#1A1A1A"/>
<path fill-rule="evenodd" clip-rule="evenodd" d="M130.225 114.665C136.92 111.919 143.144 109.522 149.058 107.263C156.706 110.425 163.947 113.453 170.876 116.664C165.533 119.324 159.906 122.048 153.609 125.398C145.527 121.641 137.672 117.915 130.225 114.665Z" fill="#1A1A1A"/>
<path fill-rule="evenodd" clip-rule="evenodd" d="M516.831 44.693C517.851 44.2141 518.615 43.5857 519.423 43.1123C521.369 44.3802 523.222 45.8113 525.095 47.1927C524.41 47.7989 523.777 48.5159 522.949 49.0695C521.084 47.6494 518.961 46.1463 516.831 44.693Z" fill="#1A1A1A"/>
<path fill-rule="evenodd" clip-rule="evenodd" d="M559.392 34.2345C559.932 33.8414 560.523 33.5396 561.055 33.177C562.457 34.2594 563.993 35.3778 565.339 36.4103C564.874 36.8311 564.47 37.2574 564.054 37.7446C562.519 36.5902 560.924 35.4137 559.392 34.2345Z" fill="#1A1A1A"/>
<path fill-rule="evenodd" clip-rule="evenodd" d="M662.152 140.828C662.38 140.247 662.681 139.665 662.837 139.106C663.958 139.87 665.003 140.742 666.124 141.539C666.037 142.215 665.881 142.854 665.725 143.494C664.462 142.6 663.339 141.714 662.152 140.828Z" fill="#1A1A1A"/>
<path fill-rule="evenodd" clip-rule="evenodd" d="M101.286 204.78C106.052 202.507 109.909 200.362 113.979 198.308C119.954 199.993 125.676 201.519 131.379 203.169C127.881 205.275 123.92 207.731 119.729 210.056C113.483 208.362 107.365 206.518 101.286 204.78Z" fill="#1A1A1A"/>
<path fill-rule="evenodd" clip-rule="evenodd" d="M452.021 37.9771C453.693 37.4844 455.402 37.1466 456.848 36.6428C459.176 38.157 461.634 39.7294 463.836 41.1883C462.434 41.8028 461.121 42.326 459.572 42.9018C457.255 41.3156 454.546 39.5661 452.021 37.9771Z" fill="#1A1A1A"/>
<path fill-rule="evenodd" clip-rule="evenodd" d="M513.646 0.544957C514.708 0.348412 515.77 0.17955 516.812 0.126953C518.562 1.23425 520.229 2.49933 521.904 3.71182C520.912 3.88345 519.914 4.07169 518.914 4.29038C517.124 2.98377 515.385 1.74083 513.646 0.544957Z" fill="#1A1A1A"/>
<path fill-rule="evenodd" clip-rule="evenodd" d="M540.085 46.4008C541.049 46.0963 541.999 45.8804 542.889 45.6091C544.385 46.6832 546.08 47.8625 547.652 48.9255C546.757 49.2411 545.932 49.5345 545.032 49.8556C543.337 48.6819 541.774 47.5773 540.082 46.4008H540.085Z" fill="#1A1A1A"/>
<path fill-rule="evenodd" clip-rule="evenodd" d="M702.744 170.465C703.018 170.022 703.221 169.673 703.497 169.23C704.38 169.834 705.261 170.443 706.072 171.01C705.874 171.467 705.746 171.896 705.47 172.267C704.584 171.694 703.625 171.077 702.744 170.465Z" fill="#1A1A1A"/>
<path fill-rule="evenodd" clip-rule="evenodd" d="M562.809 71.099C563.773 70.7834 564.676 70.4208 565.562 70.1882C566.973 71.1433 568.522 72.1675 570.011 73.1198C569.116 73.4354 568.221 73.7676 567.388 74.144C565.908 73.1392 564.356 72.1288 562.809 71.099Z" fill="#1A1A1A"/>
<path fill-rule="evenodd" clip-rule="evenodd" d="M412.775 84.309C414.868 83.7637 416.875 83.2073 418.804 82.6924C421.343 84.0571 423.815 85.3554 426.494 86.7838C424.512 87.2351 422.567 87.8524 420.624 88.4254C418.099 87.0191 415.334 85.6239 412.775 84.309Z" fill="#1A1A1A"/>
<path fill-rule="evenodd" clip-rule="evenodd" d="M709.503 160.895C709.762 160.444 710.1 160.053 710.362 159.705C711.228 160.255 712.028 160.831 712.831 161.476C712.572 161.861 712.307 162.262 712.048 162.711C711.173 162.094 710.3 161.476 709.503 160.895Z" fill="#1A1A1A"/>
<path fill-rule="evenodd" clip-rule="evenodd" d="M586.159 92.7161C587.054 92.4033 587.957 91.9908 588.779 91.6614C590.165 92.5832 591.413 93.4275 592.734 94.3272C591.982 94.676 591.224 95.0691 590.393 95.4898C589.005 94.532 587.612 93.696 586.159 92.7133V92.7161Z" fill="#1A1A1A"/>
<path fill-rule="evenodd" clip-rule="evenodd" d="M574.804 56.073C575.588 55.8709 576.354 55.7934 577.132 55.6494C578.272 56.4245 579.467 57.291 580.616 58.019C579.975 58.1574 579.194 58.3567 578.542 58.5782C577.277 57.7062 576.075 56.8647 574.804 56.0757V56.073Z" fill="#1A1A1A"/>
<path fill-rule="evenodd" clip-rule="evenodd" d="M8.01086e-05 255.785C6.36041 253.875 13.0858 251.607 19.8837 249.639C26.18 250.985 32.9807 251.942 39.3745 253.119C33.2622 254.985 26.6427 257.172 20.5276 259.339C13.3841 258.14 6.7757 257.036 8.01086e-05 255.787V255.785Z" fill="#1A1A1A"/>
<path fill-rule="evenodd" clip-rule="evenodd" d="M488.798 11.9585C490.2 12.0139 491.463 12.0277 492.725 12.0388C494.205 12.9772 495.749 13.9572 497.344 15.0063C496.087 14.9482 494.936 15.0534 493.667 15.0423C492.073 13.9959 490.476 12.9385 488.801 11.9585H488.798Z" fill="#1A1A1A"/>
<path fill-rule="evenodd" clip-rule="evenodd" d="M692.053 166.426C692.482 166.108 692.911 165.778 693.193 165.474C693.993 165.983 694.868 166.564 695.598 167.029C695.317 167.37 694.963 167.661 694.609 168.026C693.734 167.436 692.928 166.944 692.053 166.429V166.426Z" fill="#1A1A1A"/>
<path fill-rule="evenodd" clip-rule="evenodd" d="M314.123 132.496C317.289 131.726 320.681 131.267 323.911 130.569C327.094 131.674 329.99 132.64 332.836 133.775C329.904 134.312 326.729 135.067 323.415 135.823C320.319 134.683 317.139 133.586 314.126 132.496H314.123Z" fill="#1A1A1A"/>
<path fill-rule="evenodd" clip-rule="evenodd" d="M324.932 189.848C327.789 188.068 330.615 186.296 333.458 184.754C337.438 186.28 341.496 188.074 345.582 189.804C342.937 191.561 340.309 193.275 337.653 195.274C333.224 193.269 329.029 191.589 324.932 189.845V189.848Z" fill="#1A1A1A"/>
<path fill-rule="evenodd" clip-rule="evenodd" d="M701.078 180.94C701.351 180.156 701.549 179.356 701.749 178.673C702.867 179.473 704.063 180.358 705.261 181.28C705.141 182.08 705.019 182.988 704.829 183.808C703.625 182.864 702.351 181.903 701.078 180.937V180.94Z" fill="#1A1A1A"/>
<path fill-rule="evenodd" clip-rule="evenodd" d="M394.107 119.026C396.682 117.558 399.057 116.249 401.261 114.973C404.651 116.847 408.182 118.837 411.71 120.864C409.492 122.223 407.51 123.856 405.038 125.26C401.286 123.159 397.705 121.069 394.107 119.026Z" fill="#1A1A1A"/>
</g>
<defs>
<clipPath id="clip0_181_3">
<rect width="725" height="394" fill="white" transform="matrix(-1 0 0 1 725 -17)"/>
</clipPath>
</defs>
</svg>
