<svg width="920" height="814" viewBox="0 0 920 814" fill="none" xmlns="http://www.w3.org/2000/svg">
<path d="M-471 974.755C-294.288 917.636 -158.607 981.834 3.67602 1045.47C91.3018 1079.81 179.927 1107.67 273.294 1079.27C411.717 1037.18 501.931 922.535 616.365 842.793C810.915 707.239 874.783 996.89 1041.88 1030.95C1113 1045.44 1156.91 995.89 1217.8 971.703C1303.81 937.539 1382.78 995.685 1451.18 1043.47" stroke="url(#paint0_linear_121_1830)" stroke-miterlimit="10"/>
<path d="M-471 939.976C-391.832 909.787 -314.56 902.836 -232.675 927.203C-157.07 949.696 -92.151 995.12 -20.7997 1027.26C63.4687 1065.22 150.044 1098.51 242.257 1068.27C388.727 1020.23 476.891 889.781 596.425 803.242C789.976 663.098 846.283 961.828 1005.18 1002.12C1085.63 1022.51 1132.25 963.393 1200.66 936.359C1293.1 899.81 1379.47 968.035 1451.18 1019.72" stroke="url(#paint1_linear_121_1830)" stroke-miterlimit="10"/>
<path d="M-471 906.402C-399.751 874.11 -328.759 864.056 -253.512 889.294C-179.392 914.147 -119.19 966.471 -50.9139 1002.69C28.5106 1044.83 110.242 1087.12 201.635 1060.14C354.871 1014.95 451.057 868.442 569.976 773.644C772.753 611.98 806.404 937.077 972.532 974.499C1057.77 993.71 1110.85 925.151 1184.05 898.425C1282.52 862.491 1376.96 941.002 1451.15 995.941" stroke="url(#paint2_linear_121_1830)" stroke-miterlimit="10"/>
<path d="M-471 874.52C-306.333 786.032 -207.431 890.705 -73.3137 975.294C2.85591 1023.33 84.8689 1078.91 178.21 1047.98C329.37 997.89 428.811 847.281 543.399 747.123C617.364 682.488 688.177 667.484 751.532 749.252C806.481 820.145 841.772 922.252 939.547 942.797C1024.69 960.674 1084.81 890.499 1157.86 861.901C1265.34 819.786 1371.76 911.865 1451.18 972.216" stroke="url(#paint3_linear_121_1830)" stroke-miterlimit="10"/>
<path d="M-471 844.87C-311.51 744.558 -212.121 848.718 -86.3333 943.259C-19.2364 993.684 56.7282 1063.53 147.378 1039.85C202.558 1025.44 251.484 984.476 293.618 948.312C374.606 878.829 441.831 796.856 518.718 723.449C592.427 653.069 665.086 625.369 728.287 718.217C775.393 787.417 811.53 894.321 906.229 909.428C996.264 923.791 1062.16 846.486 1141.12 819.76C1255.02 781.185 1369.83 884.857 1451.18 948.414" stroke="url(#paint4_linear_121_1830)" stroke-miterlimit="10"/>
<path d="M-471 817.99C-408.824 773.233 -340.215 745.148 -264.455 772.413C-197 796.702 -144.563 853.129 -92.715 900.143C-34.2807 953.133 39.5311 1047.21 129.233 1028.72C179.722 1018.31 224.137 979.629 261.863 946.696C345.132 873.982 418.124 789.751 492.986 708.727C563.056 632.858 640.712 578.278 706.066 683.873C750.071 754.946 784.235 867.364 884.034 871.314C972.609 874.828 1039.17 804.038 1119 777.927C1241.46 737.89 1365.68 855.566 1451.21 924.689" stroke="url(#paint5_linear_121_1830)" stroke-miterlimit="10"/>
<path d="M-471 793.316C-407.184 743.558 -336.089 710.522 -255.485 739.198C-187.466 763.384 -131.133 818.529 -80.8486 868.108C-28.5653 919.688 41.6071 1021 127.208 1003.71C175.109 994.043 217.243 955.288 252.56 923.843C333.317 851.898 405.437 769.874 478.403 690.286C545.218 617.418 623.695 550.988 689.971 656.096C733.336 724.86 766.269 834.611 864.198 835.97C952.003 837.176 1025.23 773.387 1107.21 751.535C1234.82 717.499 1359.53 829.071 1451.18 900.348" stroke="url(#paint6_linear_121_1830)" stroke-miterlimit="10"/>
<path d="M-471 765.821C-400.597 710.394 -325.478 680.59 -239.416 719.063C-168.244 750.894 -105.914 811.117 -50.837 864.44C-1.42418 912.301 59.8037 993.068 137.716 967.907C185.258 952.544 226.598 911.506 262.068 878.521C333.163 812.425 399.235 740.839 466.306 670.716C530.225 603.85 607.779 538.804 676.49 632.037C725.365 698.365 756.479 804.448 854.049 809.296C940.957 813.605 1024.99 756.228 1108.78 740.839C1235.49 717.55 1353.33 804.961 1451.21 872.314" stroke="url(#paint7_linear_121_1830)" stroke-miterlimit="10"/>
<path d="M-471 735.274C-395.292 677.461 -318.148 652.043 -229.702 697.698C-161.939 732.657 -99.4041 788.956 -43.6609 840.331C8.28925 888.217 72.08 970.729 150.582 934.205C191.563 915.148 225.291 878.855 257.481 848.153C325.193 783.519 389.24 714.985 455.363 648.76C523.767 580.253 601.269 527.134 672.236 618.213C721.085 680.924 756.274 779.646 848.897 783.75C934.114 787.546 1018.77 746.687 1101.93 733.093C1230.31 712.113 1344.28 777.62 1451.21 840.741" stroke="url(#paint8_linear_121_1830)" stroke-miterlimit="10"/>
<path d="M-471 702.238C-383.682 639.194 -300.387 624.933 -207.405 683.591C-140.59 725.732 -78.824 782.826 -19.0314 834.303C30.894 877.29 87.0474 944.772 156.912 905.683C194.331 884.754 225.47 847.435 255.277 817.247C318.734 752.945 380.526 687.08 445.829 624.625C513.489 559.913 590.941 513.207 662.958 594.975C716.728 656.019 753.967 753.382 846.36 762.205C927.783 769.976 1016.51 738.121 1096.6 725.707C1224.59 705.88 1337.21 751.15 1451.15 806.423" stroke="url(#paint9_linear_121_1830)" stroke-miterlimit="10"/>
<path d="M-471 667.33C-376.403 603.644 -289.418 596.822 -194.616 663.457C-123.085 713.729 -58.8076 777.26 9.21191 832.354C55.985 870.211 107.73 922.124 166.19 878.624C204.839 849.872 236.388 806.551 268.476 771.259C322.732 711.625 378.347 652.787 438.038 598.566C511.183 532.11 590.505 500.716 664.163 580.817C718.086 639.45 759.4 730.964 848 740.89C931.858 750.278 1022.53 728.246 1105.6 716.832C1227.75 700.058 1336.46 727.374 1451.18 769.874" stroke="url(#paint10_linear_121_1830)" stroke-miterlimit="10"/>
<path d="M-471 631.088C-363.153 563.607 -271.478 570.788 -172.473 649.889C-97.3538 709.907 -33.3324 779.748 44.9644 836.381C98.6829 875.213 137.409 897.142 186.437 843.024C269.757 751.047 337.238 646.221 434.86 566.915C506.518 508.719 585.353 487.02 656.756 554.758C717.087 611.98 757.683 699.827 844.771 720.449C925.169 739.454 1026.07 720.705 1106.9 709.676C1226.21 693.389 1333.88 702.956 1451.21 731.888" stroke="url(#paint11_linear_121_1830)" stroke-miterlimit="10"/>
<path d="M-471 594.129C-350.236 523.62 -251.897 546.525 -150.073 636.782C-77.1325 701.443 -16.4685 776.311 66.3134 829.43C127.08 868.442 159.065 875.341 200.635 813.22C266.502 714.806 332.805 614.212 428.76 541.626C506.339 482.916 584.943 469.733 660.754 537.419C723.879 593.795 768.806 684.489 858.072 704.444C937.24 722.141 1029.63 713.729 1109.44 702.854C1225.31 687.054 1334.16 679.924 1451.21 692.979" stroke="url(#paint12_linear_121_1830)" stroke-miterlimit="10"/>
<path d="M-471 557.041C-339.369 484.327 -236.391 520.158 -132.056 619.649C-58.2182 690.055 2.65083 776.055 93.5571 825.967C161.038 863.03 184.72 843.768 216.91 780.236C268.117 679.206 332.881 577.098 427.735 511.283C508.031 455.549 589.249 453.83 664.675 517.875C730.465 573.764 778.392 662.098 866.53 686.874C1055.57 740.018 1261.29 660.585 1451.21 653.993" stroke="url(#paint13_linear_121_1830)" stroke-miterlimit="10"/>
<path d="M-471 520.389C-405.518 485.481 -343.957 464.757 -270.683 490.175C-210.07 511.207 -160.427 555.348 -115.96 600.31C-42.6101 674.537 20.1042 774.413 117.828 818.529C191.127 851.616 208.478 807.039 233.21 744.84C273.525 643.374 334.394 539.42 429.503 480.018C636.791 350.517 711.602 612.545 876.525 669.356C1069.13 735.71 1262.86 651.992 1451.21 615.494" stroke="url(#paint14_linear_121_1830)" stroke-miterlimit="10"/>
<path d="M-471 484.763C-402.699 448.598 -339.754 428.438 -265.147 455.908C-202.561 478.94 -151.969 526.006 -106.631 573.687C-35.3314 648.658 38.4034 778.44 144.764 808.295C219.217 829.199 230.955 759.486 249.818 703.366C282.828 605.132 339.724 496.818 434.911 444.853C632.511 336.975 732.029 579.535 881.215 648.094C1076.94 738.043 1266.47 645.811 1451.18 578.15" stroke="url(#paint15_linear_121_1830)" stroke-miterlimit="10"/>
<path d="M-471 450.778C-402.032 413.228 -339.907 392.838 -263.994 419.435C-201.049 441.493 -149.611 490.713 -104.863 538.676C-32.256 616.52 45.5795 764.385 158.476 786.443C235.209 801.447 245.973 724.732 262.735 667.125C291.516 568.3 343.338 458.909 442.805 412.946C640.687 321.509 747.406 554.373 893.363 629.678C969.354 668.869 1067.74 688.952 1152.4 675.307C1259.71 658.02 1357.84 594.385 1451.21 542.754" stroke="url(#paint16_linear_121_1830)" stroke-miterlimit="10"/>
<path d="M-471 418.974C-397.547 376.474 -326.555 351.979 -245.234 388.708C-184.211 416.281 -135.797 466.963 -92.0486 516.157C-26.4894 589.871 56.1387 745.174 166.421 756.818C249.433 765.59 259.915 674.871 277.702 613.622C305.202 518.952 354.717 417.461 454.389 380.937C650.784 308.941 764.347 524.826 906.05 609.185C977.658 651.813 1071.25 681.001 1155.01 670.562C1267.21 656.558 1364.32 575.303 1451.15 509.77" stroke="url(#paint17_linear_121_1830)" stroke-miterlimit="10"/>
<path d="M-471 389.965C-401.648 345.747 -333.372 314.968 -251.436 348.081C-185.774 374.627 -133.491 430.977 -88.3836 483.634C-23.9009 558.913 57.1895 713.472 171.751 716.191C253.431 718.115 268.553 626.087 287.826 564.633C317.632 469.681 364.764 377.577 469.305 350.723C669.494 299.271 780.647 496.664 923.888 591.359C994.009 637.731 1087.53 675.974 1172.95 663.637C1284.67 647.478 1374.42 554.553 1451.18 480.018" stroke="url(#paint18_linear_121_1830)" stroke-miterlimit="10"/>
<path d="M-471 364.342C-407.337 318.149 -341.214 279.445 -260.252 306.581C-197.153 327.716 -147.459 379.475 -104.991 428.566C-35.4339 508.949 34.5334 651.941 154.272 661.072C245.307 667.997 268.963 579.458 295.155 509.411C330.882 413.844 380.68 332.922 490.09 318.123C684.051 291.884 795.819 458.781 930.577 563.838C998.135 616.494 1089.61 666.92 1178 658.302C1295.25 646.862 1381.55 537.753 1451.18 454.112" stroke="url(#paint19_linear_121_1830)" stroke-miterlimit="10"/>
<path d="M-471 344.131C-407.645 299.887 -342.316 263.466 -262.969 289.32C-201.177 309.454 -151.995 358.93 -110.04 406.534C-42.4563 483.172 29.0745 630.293 145.379 634.32C235.312 637.424 266.092 557.708 298.334 487.635C339.673 397.839 395.621 315.635 501.726 301.298C688.895 276.008 805.815 431.926 938.65 531.648C1003.82 580.561 1095.76 630.319 1179.46 628.677C1296.48 626.369 1383.16 514.977 1451.18 433.67" stroke="url(#paint20_linear_121_1830)" stroke-miterlimit="10"/>
<path d="M-471 330.306C-408.644 287.601 -344.264 252.18 -266.48 275.726C-206.38 293.911 -157.915 340.232 -116.627 385.579C-50.1194 458.652 21.1038 604.234 133.641 604.927C221.882 605.465 259.454 535.188 297.975 466.732C345.03 383.117 406.796 302.888 509.133 288.832C689.536 264.081 811.402 403.918 944.314 496.997C1008.85 542.19 1099.78 592.615 1179.64 599.746C1296.07 610.133 1384.16 497.638 1451.15 419.256" stroke="url(#paint21_linear_121_1830)" stroke-miterlimit="10"/>
<path d="M-471 321.74C-411.182 280.83 -347.237 245.46 -272.528 264.44C-208.84 280.599 -158.248 328.793 -114.884 375.448C-48.9661 446.367 17.1313 578.098 127.259 573.199C210.58 569.506 253.047 506.205 296.565 443.904C350.002 367.369 414.51 295.603 512.362 281.702C690.048 256.438 814.529 377.32 952.772 463.551C1016.64 503.409 1097.68 550.68 1171.26 569.737C1290.54 600.618 1381.37 488.764 1451.18 409.766" stroke="url(#paint22_linear_121_1830)" stroke-miterlimit="10"/>
<path d="M-471 317.328C-412.822 277.034 -350.236 240.895 -276.757 255.848C-215.581 268.313 -165.86 311.198 -123.239 354.262C-56.3985 421.769 5.82882 543.011 112.523 538.266C193.459 534.675 242.129 481.377 291.644 423.95C350.976 355.16 419.456 289.807 513.541 276.111C683.718 251.334 814.118 347.978 953.976 424.873C1023.38 463.038 1096.37 509.693 1169.23 540.574C1286.54 590.307 1378.75 482.685 1451.15 404.174" stroke="url(#paint23_linear_121_1830)" stroke-miterlimit="10"/>
<path d="M-471 315.969C-348.596 229.122 -242.722 229.558 -131.569 332.538C-63.3184 395.762 -5.31981 504.281 97.6322 500.588C175.929 497.767 230.365 454.574 285.545 403.867C350.565 344.131 422.199 286.344 512.541 272.904C674.696 248.769 811.991 318.662 953.105 384.964C1030.79 421.462 1093.63 467.245 1165.98 511.642C1280.23 581.74 1373.5 481.659 1451.21 401.507" stroke="url(#paint24_linear_121_1830)" stroke-miterlimit="10"/>
<path d="M-471 316.559C-357.079 233.046 -252.23 216.836 -139.411 309.787C-69.3668 367.497 -15.4176 462.038 83.3568 460.089C247.819 456.857 349.105 295.655 509.85 271.34C663.83 248.051 808.48 289.345 950.106 344.054C1036.68 377.5 1091.19 424.873 1161.42 482.659C1271.57 573.302 1365.19 484.634 1451.18 400.584" stroke="url(#paint25_linear_121_1830)" stroke-miterlimit="10"/>
<path d="M-471 317.995C-366.818 238.535 -262.789 204.884 -148.996 283.6C-78.6445 332.256 -27.0532 413.562 63.8531 416.691C227.315 422.359 348.951 294.219 505.826 269.724C648.965 247.384 801.945 259.772 940.034 301.221C1038.35 330.742 1088.55 384.425 1157.86 456.087C1183.74 482.865 1212.86 510.745 1251.73 514.951C1329.08 523.287 1401.43 446.572 1451.18 400.507" stroke="url(#paint26_linear_121_1830)" stroke-miterlimit="10"/>
<path d="M-471 319.175C-374.071 242.28 -270.529 193.419 -154.199 257.797C-82.2326 297.63 -32.1791 365.24 53.6527 370.241C213.347 379.552 347.874 293.911 501.495 270.032C639.303 248.615 795.46 230.764 933.089 260.311C1038.96 283.036 1086.58 346.414 1150.76 427.412C1175.33 458.447 1203.17 494.15 1243.79 503.897C1322.27 522.723 1399.69 445.341 1451.15 400.224" stroke="url(#paint27_linear_121_1830)" stroke-miterlimit="10"/>
<path d="M-471 318.969C-376.403 240.997 -271.273 180.646 -149.483 232.662C-83.0784 261.029 -33.6655 313.019 40.2231 320.252C199.021 335.821 343.415 293.577 498.471 270.801C580.176 258.798 660.677 246.897 741.691 230.558C804.661 217.862 865.864 211.271 929.885 220.453C1040.5 236.304 1087.22 315.404 1144.58 401.584C1167.54 436.081 1195.15 478.915 1236.87 492.637C1316.83 518.952 1396.59 444.058 1451.18 398.583" stroke="url(#paint28_linear_121_1830)" stroke-miterlimit="10"/>
<path d="M-471 316.302C-379.889 238.792 -274.707 166.975 -150.175 200.19C-84.1548 217.811 -30.872 258.798 37.737 267.467C194.254 287.216 339.263 291.705 495.652 269.904C578.459 258.362 656.09 241.357 735.078 213.964C795.896 192.88 854.253 175.593 919.454 180.21C1035.55 188.418 1082.71 281.856 1135.12 372.601C1157.45 411.254 1184.41 460.986 1227.67 479.787C1309.17 515.208 1393.16 440.775 1451.23 394.684" stroke="url(#paint29_linear_121_1830)" stroke-miterlimit="10"/>
<path d="M-471 310.069C-381.17 231.841 -276.398 151.945 -150.38 164.051C-82.7196 170.54 -20.7997 202.55 46.3741 212.45C199.918 235.098 334.983 286.78 492.704 267.518C576.153 257.31 651.143 235.509 726.339 198.215C782.979 170.13 836.954 141.711 901.847 140.891C1027.99 139.352 1075.64 249.615 1126.43 346.875C1148.37 388.888 1174.75 443.545 1219.44 466.065C1302.38 507.872 1389.82 434.235 1451.18 387.375" stroke="url(#paint30_linear_121_1830)" stroke-miterlimit="10"/>
<path d="M-471 299.169C-379.325 218.401 -274.271 133.299 -147.023 124.886C-78.4139 120.346 -6.19114 140.762 60.5726 154.613C210.733 185.75 335.752 280.471 495.216 263.235C577.203 254.386 649.606 227.686 718.343 182.647C773.804 146.302 824.626 107.342 893.492 103.315C1022.38 95.8001 1069.59 223.864 1116.62 321.047C1138.97 367.189 1164.62 423.001 1210.7 450.316C1293.46 499.357 1388.88 421.872 1451.18 375.704" stroke="url(#paint31_linear_121_1830)" stroke-miterlimit="10"/>
<path d="M-471 282.446C-314.124 144.558 -148.791 38.2445 64.7757 89.901C216.807 126.681 333.907 269.724 498.855 256.233C582.432 249.385 652.835 215.81 716.421 162.641C766.218 121.013 810.582 75.3582 878.524 67.997C1008.1 53.9672 1055.6 185.135 1100.01 282.189C1124.26 335.154 1150.5 401.404 1203.12 432.952C1287.95 483.814 1386.47 405.662 1451.15 358.571" stroke="url(#paint32_linear_121_1830)" stroke-miterlimit="10"/>
<path d="M-471 259.721C-320.045 130.657 -125.853 -12.1039 85.3302 47.0933C233.569 88.6442 345.568 246.871 508.492 238.51C589.967 234.329 659.191 195.266 716.702 139.916C762.322 96.031 803.098 46.529 870.195 39.0909C994.496 25.2663 1045.09 154.741 1088.89 246.794C1115.11 301.862 1142.58 369.267 1196.5 403.148C1282.85 457.395 1382.57 383.322 1451.15 335.513" stroke="url(#paint33_linear_121_1830)" stroke-miterlimit="10"/>
<path d="M-471 235.97C-319.507 112.395 -120.625 -24.0562 87.2268 27.1899C240.002 64.8422 361.022 221.863 526.432 211.117C601.397 206.243 664.214 169.797 716.856 118.397C758.862 77.3844 795.691 30.6525 857.022 20.6239C979.349 0.617871 1039.78 133.35 1087.25 221.376C1114.52 271.904 1144.09 330.46 1193.58 363.06C1280.13 420.077 1377.52 356.955 1451.18 309.505" stroke="url(#paint34_linear_121_1830)" stroke-miterlimit="10"/>
<path d="M-471 212.22C-316.636 93.0044 -108.067 -38.8298 98.2473 13.6987C248.254 51.8896 376.656 195.214 538.529 186.417C607.548 182.672 667.982 145.866 716.241 99.0319C754.915 61.5078 789.335 16.8022 844.899 5.02942C965.304 -20.4654 1034.55 113.293 1086.99 196.805C1118.51 246.999 1151.47 302.247 1205.6 330.64C1291.25 375.55 1376.45 325.972 1451.18 281.574" stroke="url(#paint35_linear_121_1830)" stroke-miterlimit="10"/>
<path d="M-471 188.469C-311.69 72.9729 -98.0457 -48.3198 108.063 2.7724C256.635 39.6039 390.496 172.31 549.883 161.41C614.084 157.024 668.956 124.732 714.832 81.5652C753.403 45.2723 788.054 1.02829 843.156 -9.15424C957.641 -30.3401 1032.22 95.2616 1088.09 173.08C1120.16 217.734 1154.14 263.286 1203.01 290.346C1288.05 337.385 1373.75 294.321 1451.18 252.052" stroke="url(#paint36_linear_121_1830)" stroke-miterlimit="10"/>
<path d="M-471 164.718C-310.588 56.6089 -103.607 -47.7556 97.5297 -9.82118C253.201 19.5466 393.879 149.739 557.366 138.274C619.363 133.914 672.159 102.264 717.317 61.5848C754.249 28.2928 787.797 -10.0777 838.979 -19.7472C944.929 -39.7789 1023.82 68.4074 1082.04 139.095C1120.16 185.391 1161.8 236.201 1218.83 259.875C1299.46 293.346 1378.83 257.592 1451.21 221.325" stroke="url(#paint37_linear_121_1830)" stroke-miterlimit="10"/>
<path d="M-471 140.968C-306.59 39.2448 -95.3291 -54.0908 103.937 -15.9512C255.84 13.1344 403.438 128.656 562.313 116.935C677.695 108.419 728.056 -4.76836 832.059 -27.6983C936.625 -50.7308 1021.77 51.1971 1086.04 117.166C1124.69 156.844 1165.03 198.523 1217.21 220.068C1298 253.411 1376.39 223.838 1451.15 189.726" stroke="url(#paint38_linear_121_1830)" stroke-miterlimit="10"/>
<path d="M-471 117.217C-302.258 22.804 -94.9959 -53.8343 102.399 -22.0555C255.533 2.59286 405.847 107.316 564.414 95.4411C673.338 87.2849 731.567 -14.4122 832.11 -34.1361C930.141 -53.3469 1014.49 27.5747 1081.81 86.6949C1123.38 123.219 1166.16 161.538 1218.52 181.826C1298.71 212.912 1375.42 189.059 1451.21 157.691" stroke="url(#paint39_linear_121_1830)" stroke-miterlimit="10"/>
<path d="M-471 93.4662C-299.721 8.51768 -94.7652 -54.219 99.0674 -26.5697C252.304 -4.71704 406.181 85.8741 563.441 74.4605C667.956 66.8685 735.565 -21.363 834.263 -39.3171C931.628 -57.0404 1020.3 16.084 1093.12 69.5103C1132.66 98.519 1173.87 127.861 1220.52 144.379C1300.92 172.849 1374.29 154.074 1451.18 125.553" stroke="url(#paint40_linear_121_1830)" stroke-miterlimit="10"/>
<path d="M-471 69.7155C-297.901 -4.35793 -95.816 -53.9625 94.1979 -30.4683C247.69 -11.4883 403.003 64.2523 559.417 53.8903C662.061 47.0933 740.538 -26.698 839.568 -42.7797C930.962 -57.6046 1017.13 -2.40863 1091.91 42.5279C1213.47 115.575 1313.78 138.634 1451.18 93.6201" stroke="url(#paint41_linear_121_1830)" stroke-miterlimit="10"/>
<path d="M-471 45.9647C-296.876 -15.9256 -105.196 -50.0127 80.2301 -34.3413C236.926 -21.081 392.751 40.835 551.062 32.8839C657.243 27.549 748.226 -35.3929 852.742 -46.0628C939.086 -54.8859 1020.59 -15.6178 1096.55 20.2904C1218.39 77.923 1318.83 99.6731 1451.18 62.3543" stroke="url(#paint42_linear_121_1830)" stroke-miterlimit="10"/>
<path d="M-471 22.2141C-293.749 -26.9801 -104.504 -49.8844 79.5381 -36.8292C233.133 -25.9285 387.318 19.8544 541.938 13.2114C650.528 8.54337 751.866 -37.6756 859.61 -47.1656C950.286 -55.1423 1035.43 -23.4919 1119.75 5.69636C1233 44.9132 1332.8 59.5073 1451.18 32.1145" stroke="url(#paint43_linear_121_1830)" stroke-miterlimit="10"/>
<path d="M-471 -1.51101C-296.338 -35.3673 -115.397 -48.7302 62.4948 -40.7792C217.397 -33.854 372.12 -3.48595 527.457 -7.58974C646.376 -10.7189 762.399 -42.4463 881.062 -48.6277C965.74 -53.0392 1047.6 -33.5206 1129.54 -14.5662C1238.66 10.6721 1339.82 22.4192 1451.18 3.20835" stroke="url(#paint44_linear_121_1830)" stroke-miterlimit="10"/>
<defs>
<linearGradient id="paint0_linear_121_1830" x1="490.09" y1="806.902" x2="490.09" y2="1091" gradientUnits="userSpaceOnUse">
<stop stop-color="#333333"/>
<stop offset="1" stop-color="#333333" stop-opacity="0"/>
</linearGradient>
<linearGradient id="paint1_linear_121_1830" x1="490.09" y1="766.102" x2="490.09" y2="1080.03" gradientUnits="userSpaceOnUse">
<stop stop-color="#333333"/>
<stop offset="1" stop-color="#333333" stop-opacity="0"/>
</linearGradient>
<linearGradient id="paint2_linear_121_1830" x1="490.077" y1="728.852" x2="490.077" y2="1068.63" gradientUnits="userSpaceOnUse">
<stop stop-color="#333333"/>
<stop offset="1" stop-color="#333333" stop-opacity="0"/>
</linearGradient>
<linearGradient id="paint3_linear_121_1830" x1="490.09" y1="693.181" x2="490.09" y2="1056.91" gradientUnits="userSpaceOnUse">
<stop stop-color="#333333"/>
<stop offset="1" stop-color="#333333" stop-opacity="0"/>
</linearGradient>
<linearGradient id="paint4_linear_121_1830" x1="490.09" y1="659.009" x2="490.09" y2="1044.61" gradientUnits="userSpaceOnUse">
<stop stop-color="#333333"/>
<stop offset="1" stop-color="#333333" stop-opacity="0"/>
</linearGradient>
<linearGradient id="paint5_linear_121_1830" x1="490.103" y1="625.154" x2="490.103" y2="1031.09" gradientUnits="userSpaceOnUse">
<stop stop-color="#333333"/>
<stop offset="1" stop-color="#333333" stop-opacity="0"/>
</linearGradient>
<linearGradient id="paint6_linear_121_1830" x1="490.09" y1="601.51" x2="490.09" y2="1005.67" gradientUnits="userSpaceOnUse">
<stop stop-color="#333333"/>
<stop offset="1" stop-color="#333333" stop-opacity="0"/>
</linearGradient>
<linearGradient id="paint7_linear_121_1830" x1="490.103" y1="585.583" x2="490.103" y2="972.654" gradientUnits="userSpaceOnUse">
<stop stop-color="#333333"/>
<stop offset="1" stop-color="#333333" stop-opacity="0"/>
</linearGradient>
<linearGradient id="paint8_linear_121_1830" x1="490.103" y1="569.781" x2="490.103" y2="943.268" gradientUnits="userSpaceOnUse">
<stop stop-color="#333333"/>
<stop offset="1" stop-color="#333333" stop-opacity="0"/>
</linearGradient>
<linearGradient id="paint9_linear_121_1830" x1="490.077" y1="551.353" x2="490.077" y2="917.424" gradientUnits="userSpaceOnUse">
<stop stop-color="#333333"/>
<stop offset="1" stop-color="#333333" stop-opacity="0"/>
</linearGradient>
<linearGradient id="paint10_linear_121_1830" x1="490.09" y1="533.23" x2="490.09" y2="895.147" gradientUnits="userSpaceOnUse">
<stop stop-color="#333333"/>
<stop offset="1" stop-color="#333333" stop-opacity="0"/>
</linearGradient>
<linearGradient id="paint11_linear_121_1830" x1="490.103" y1="512.773" x2="490.103" y2="875.357" gradientUnits="userSpaceOnUse">
<stop stop-color="#333333"/>
<stop offset="1" stop-color="#333333" stop-opacity="0"/>
</linearGradient>
<linearGradient id="paint12_linear_121_1830" x1="490.103" y1="491.901" x2="490.103" y2="859.33" gradientUnits="userSpaceOnUse">
<stop stop-color="#333333"/>
<stop offset="1" stop-color="#333333" stop-opacity="0"/>
</linearGradient>
<linearGradient id="paint13_linear_121_1830" x1="490.103" y1="469.643" x2="490.103" y2="844.712" gradientUnits="userSpaceOnUse">
<stop stop-color="#333333"/>
<stop offset="1" stop-color="#333333" stop-opacity="0"/>
</linearGradient>
<linearGradient id="paint14_linear_121_1830" x1="490.103" y1="444.498" x2="490.103" y2="829.768" gradientUnits="userSpaceOnUse">
<stop stop-color="#333333"/>
<stop offset="1" stop-color="#333333" stop-opacity="0"/>
</linearGradient>
<linearGradient id="paint15_linear_121_1830" x1="490.09" y1="417.598" x2="490.09" y2="812.09" gradientUnits="userSpaceOnUse">
<stop stop-color="#333333"/>
<stop offset="1" stop-color="#333333" stop-opacity="0"/>
</linearGradient>
<linearGradient id="paint16_linear_121_1830" x1="490.103" y1="391.989" x2="490.103" y2="788.349" gradientUnits="userSpaceOnUse">
<stop stop-color="#333333"/>
<stop offset="1" stop-color="#333333" stop-opacity="0"/>
</linearGradient>
<linearGradient id="paint17_linear_121_1830" x1="490.077" y1="366.475" x2="490.077" y2="757.41" gradientUnits="userSpaceOnUse">
<stop stop-color="#333333"/>
<stop offset="1" stop-color="#333333" stop-opacity="0"/>
</linearGradient>
<linearGradient id="paint18_linear_121_1830" x1="490.09" y1="334.161" x2="490.09" y2="716.221" gradientUnits="userSpaceOnUse">
<stop stop-color="#333333"/>
<stop offset="1" stop-color="#333333" stop-opacity="0"/>
</linearGradient>
<linearGradient id="paint19_linear_121_1830" x1="490.09" y1="297.596" x2="490.09" y2="661.454" gradientUnits="userSpaceOnUse">
<stop stop-color="#333333"/>
<stop offset="1" stop-color="#333333" stop-opacity="0"/>
</linearGradient>
<linearGradient id="paint20_linear_121_1830" x1="490.09" y1="280.701" x2="490.09" y2="634.408" gradientUnits="userSpaceOnUse">
<stop stop-color="#333333"/>
<stop offset="1" stop-color="#333333" stop-opacity="0"/>
</linearGradient>
<linearGradient id="paint21_linear_121_1830" x1="490.077" y1="268.197" x2="490.077" y2="604.93" gradientUnits="userSpaceOnUse">
<stop stop-color="#333333"/>
<stop offset="1" stop-color="#333333" stop-opacity="0"/>
</linearGradient>
<linearGradient id="paint22_linear_121_1830" x1="490.09" y1="259.173" x2="490.09" y2="574.996" gradientUnits="userSpaceOnUse">
<stop stop-color="#333333"/>
<stop offset="1" stop-color="#333333" stop-opacity="0"/>
</linearGradient>
<linearGradient id="paint23_linear_121_1830" x1="490.077" y1="252.401" x2="490.077" y2="553.227" gradientUnits="userSpaceOnUse">
<stop stop-color="#333333"/>
<stop offset="1" stop-color="#333333" stop-opacity="0"/>
</linearGradient>
<linearGradient id="paint24_linear_121_1830" x1="490.103" y1="252.925" x2="490.103" y2="535.336" gradientUnits="userSpaceOnUse">
<stop stop-color="#333333"/>
<stop offset="1" stop-color="#333333" stop-opacity="0"/>
</linearGradient>
<linearGradient id="paint25_linear_121_1830" x1="490.09" y1="246.72" x2="490.09" y2="520.791" gradientUnits="userSpaceOnUse">
<stop stop-color="#333333"/>
<stop offset="1" stop-color="#333333" stop-opacity="0"/>
</linearGradient>
<linearGradient id="paint26_linear_121_1830" x1="490.09" y1="238.815" x2="490.09" y2="515.578" gradientUnits="userSpaceOnUse">
<stop stop-color="#333333"/>
<stop offset="1" stop-color="#333333" stop-opacity="0"/>
</linearGradient>
<linearGradient id="paint27_linear_121_1830" x1="490.077" y1="227.986" x2="490.077" y2="506.793" gradientUnits="userSpaceOnUse">
<stop stop-color="#333333"/>
<stop offset="1" stop-color="#333333" stop-opacity="0"/>
</linearGradient>
<linearGradient id="paint28_linear_121_1830" x1="490.09" y1="213.212" x2="490.09" y2="498.099" gradientUnits="userSpaceOnUse">
<stop stop-color="#333333"/>
<stop offset="1" stop-color="#333333" stop-opacity="0"/>
</linearGradient>
<linearGradient id="paint29_linear_121_1830" x1="490.116" y1="179.458" x2="490.116" y2="489.043" gradientUnits="userSpaceOnUse">
<stop stop-color="#333333"/>
<stop offset="1" stop-color="#333333" stop-opacity="0"/>
</linearGradient>
<linearGradient id="paint30_linear_121_1830" x1="490.09" y1="140.875" x2="490.09" y2="478.449" gradientUnits="userSpaceOnUse">
<stop stop-color="#333333"/>
<stop offset="1" stop-color="#333333" stop-opacity="0"/>
</linearGradient>
<linearGradient id="paint31_linear_121_1830" x1="490.09" y1="102.999" x2="490.09" y2="466.001" gradientUnits="userSpaceOnUse">
<stop stop-color="#333333"/>
<stop offset="1" stop-color="#333333" stop-opacity="0"/>
</linearGradient>
<linearGradient id="paint32_linear_121_1830" x1="490.077" y1="66.9591" x2="490.077" y2="449.52" gradientUnits="userSpaceOnUse">
<stop stop-color="#333333"/>
<stop offset="1" stop-color="#333333" stop-opacity="0"/>
</linearGradient>
<linearGradient id="paint33_linear_121_1830" x1="490.077" y1="33.3057" x2="490.077" y2="422.19" gradientUnits="userSpaceOnUse">
<stop stop-color="#333333"/>
<stop offset="1" stop-color="#333333" stop-opacity="0"/>
</linearGradient>
<linearGradient id="paint34_linear_121_1830" x1="490.09" y1="16.1204" x2="490.09" y2="385.68" gradientUnits="userSpaceOnUse">
<stop stop-color="#333333"/>
<stop offset="1" stop-color="#333333" stop-opacity="0"/>
</linearGradient>
<linearGradient id="paint35_linear_121_1830" x1="490.09" y1="1.82727" x2="490.09" y2="348.329" gradientUnits="userSpaceOnUse">
<stop stop-color="#333333"/>
<stop offset="1" stop-color="#333333" stop-opacity="0"/>
</linearGradient>
<linearGradient id="paint36_linear_121_1830" x1="490.09" y1="-11.5265" x2="490.09" y2="310.824" gradientUnits="userSpaceOnUse">
<stop stop-color="#333333"/>
<stop offset="1" stop-color="#333333" stop-opacity="0"/>
</linearGradient>
<linearGradient id="paint37_linear_121_1830" x1="490.103" y1="-22.1801" x2="490.103" y2="273.218" gradientUnits="userSpaceOnUse">
<stop stop-color="#333333"/>
<stop offset="1" stop-color="#333333" stop-opacity="0"/>
</linearGradient>
<linearGradient id="paint38_linear_121_1830" x1="490.077" y1="-31.021" x2="490.077" y2="234.678" gradientUnits="userSpaceOnUse">
<stop stop-color="#333333"/>
<stop offset="1" stop-color="#333333" stop-opacity="0"/>
</linearGradient>
<linearGradient id="paint39_linear_121_1830" x1="490.103" y1="-37.0187" x2="490.103" y2="196.357" gradientUnits="userSpaceOnUse">
<stop stop-color="#333333"/>
<stop offset="1" stop-color="#333333" stop-opacity="0"/>
</linearGradient>
<linearGradient id="paint40_linear_121_1830" x1="490.09" y1="-42.0233" x2="490.09" y2="158.518" gradientUnits="userSpaceOnUse">
<stop stop-color="#333333"/>
<stop offset="1" stop-color="#333333" stop-opacity="0"/>
</linearGradient>
<linearGradient id="paint41_linear_121_1830" x1="490.09" y1="-45.2389" x2="490.09" y2="116.645" gradientUnits="userSpaceOnUse">
<stop stop-color="#333333"/>
<stop offset="1" stop-color="#333333" stop-opacity="0"/>
</linearGradient>
<linearGradient id="paint42_linear_121_1830" x1="490.09" y1="-47.3198" x2="490.09" y2="80.8461" gradientUnits="userSpaceOnUse">
<stop stop-color="#333333"/>
<stop offset="1" stop-color="#333333" stop-opacity="0"/>
</linearGradient>
<linearGradient id="paint43_linear_121_1830" x1="490.09" y1="-48.4166" x2="490.09" y2="46.1916" gradientUnits="userSpaceOnUse">
<stop stop-color="#333333"/>
<stop offset="1" stop-color="#333333" stop-opacity="0"/>
</linearGradient>
<linearGradient id="paint44_linear_121_1830" x1="490.09" y1="-49.2583" x2="490.09" y2="12.7547" gradientUnits="userSpaceOnUse">
<stop stop-color="#333333"/>
<stop offset="1" stop-color="#333333" stop-opacity="0"/>
</linearGradient>
</defs>
</svg>
