<svg width="82" height="82" viewBox="0 0 82 82" fill="none" xmlns="http://www.w3.org/2000/svg">
<rect x="0.5" y="0.5" width="80.625" height="80.625" rx="40.3125" stroke="url(#paint0_linear_121_1916)"/>
<rect x="0.5" y="0.5" width="80.625" height="80.625" rx="40.3125" stroke="url(#paint1_linear_121_1916)"/>
<rect x="10.5" y="10.5" width="60.625" height="60.625" rx="30.3125" stroke="url(#paint2_linear_121_1916)"/>
<rect x="10.5" y="10.5" width="60.625" height="60.625" rx="30.3125" stroke="url(#paint3_linear_121_1916)"/>
<path d="M40.8125 27C41.3993 27 41.875 27.4757 41.875 28.0625V31.25C41.875 31.8368 41.3993 32.3125 40.8125 32.3125C40.2257 32.3125 39.75 31.8368 39.75 31.25V28.0625C39.75 27.4757 40.2257 27 40.8125 27Z" fill="#A685FA"/>
<path d="M34.4375 40.8125C34.4375 37.2917 37.2917 34.4375 40.8125 34.4375C44.3333 34.4375 47.1875 37.2917 47.1875 40.8125C47.1875 44.3333 44.3333 47.1875 40.8125 47.1875C37.2917 47.1875 34.4375 44.3333 34.4375 40.8125Z" fill="#A685FA"/>
<path d="M50.5795 32.5481C50.9944 32.1332 50.9944 31.4605 50.5795 31.0455C50.1646 30.6306 49.4918 30.6306 49.0769 31.0455L46.823 33.2994C46.408 33.7144 46.408 34.3871 46.823 34.802C47.2379 35.217 47.9107 35.217 48.3256 34.802L50.5795 32.5481Z" fill="#A685FA"/>
<path d="M54.625 40.8125C54.625 41.3993 54.1493 41.875 53.5625 41.875H50.375C49.7882 41.875 49.3125 41.3993 49.3125 40.8125C49.3125 40.2257 49.7882 39.75 50.375 39.75H53.5625C54.1493 39.75 54.625 40.2257 54.625 40.8125Z" fill="#A685FA"/>
<path d="M49.0767 50.5794C49.4917 50.9943 50.1644 50.9943 50.5793 50.5794C50.9943 50.1644 50.9943 49.4917 50.5793 49.0768L48.3254 46.8229C47.9105 46.4079 47.2378 46.4079 46.8228 46.8229C46.4079 47.2378 46.4079 47.9105 46.8228 48.3255L49.0767 50.5794Z" fill="#A685FA"/>
<path d="M40.8125 49.3125C41.3993 49.3125 41.875 49.7882 41.875 50.375V53.5625C41.875 54.1493 41.3993 54.625 40.8125 54.625C40.2257 54.625 39.75 54.1493 39.75 53.5625V50.375C39.75 49.7882 40.2257 49.3125 40.8125 49.3125Z" fill="#A685FA"/>
<path d="M34.8023 48.3255C35.2172 47.9105 35.2172 47.2378 34.8023 46.8229C34.3874 46.4079 33.7146 46.4079 33.2997 46.8229L31.0458 49.0768C30.6309 49.4917 30.6309 50.1644 31.0458 50.5794C31.4607 50.9943 32.1335 50.9943 32.5484 50.5794L34.8023 48.3255Z" fill="#A685FA"/>
<path d="M32.3125 40.8125C32.3125 41.3993 31.8368 41.875 31.25 41.875H28.0625C27.4757 41.875 27 41.3993 27 40.8125C27 40.2257 27.4757 39.75 28.0625 39.75H31.25C31.8368 39.75 32.3125 40.2257 32.3125 40.8125Z" fill="#A685FA"/>
<path d="M33.2995 34.802C33.7145 35.217 34.3872 35.217 34.8021 34.802C35.2171 34.3871 35.2171 33.7144 34.8021 33.2994L32.5482 31.0455C32.1333 30.6306 31.4606 30.6306 31.0456 31.0455C30.6307 31.4605 30.6307 32.1332 31.0456 32.5481L33.2995 34.802Z" fill="#A685FA"/>
<defs>
<linearGradient id="paint0_linear_121_1916" x1="6.71913" y1="86.1044" x2="85.3579" y2="-5.47485" gradientUnits="userSpaceOnUse">
<stop stop-color="#A685FA"/>
<stop offset="0.323723" stop-color="#A685FA" stop-opacity="0"/>
</linearGradient>
<linearGradient id="paint1_linear_121_1916" x1="81.3761" y1="-10.452" x2="6.71913" y2="81.625" gradientUnits="userSpaceOnUse">
<stop stop-color="#A685FA"/>
<stop offset="0.576615" stop-color="#A685FA" stop-opacity="0"/>
</linearGradient>
<linearGradient id="paint2_linear_121_1916" x1="3.29083" y1="13.4788" x2="71.3765" y2="71.625" gradientUnits="userSpaceOnUse">
<stop stop-color="#A685FA"/>
<stop offset="0.323723" stop-color="#A685FA" stop-opacity="0"/>
</linearGradient>
<linearGradient id="paint3_linear_121_1916" x1="83.8009" y1="85.5403" x2="12.2364" y2="34.8488" gradientUnits="userSpaceOnUse">
<stop stop-color="#A685FA"/>
<stop offset="0.576615" stop-color="#A685FA" stop-opacity="0"/>
</linearGradient>
</defs>
</svg>
