<svg width="14" height="16" viewBox="0 0 14 16" fill="none" xmlns="http://www.w3.org/2000/svg">
<path fill-rule="evenodd" clip-rule="evenodd" d="M1 14.5V1.5H0.75C0.335786 1.5 0 1.16421 0 0.75C0 0.335786 0.335786 0 0.75 0H13.25C13.6642 0 14 0.335786 14 0.75C14 1.16421 13.6642 1.5 13.25 1.5H13V14.5H13.25C13.6642 14.5 14 14.8358 14 15.25C14 15.6642 13.6642 16 13.25 16H9.75C9.33579 16 9 15.6642 9 15.25V12.75C9 12.3358 8.66421 12 8.25 12H5.75C5.33579 12 5 12.3358 5 12.75V15.25C5 15.6642 4.66421 16 4.25 16H0.75C0.335786 16 0 15.6642 0 15.25C0 14.8358 0.335786 14.5 0.75 14.5H1ZM4 3.5C4 3.22386 4.22386 3 4.5 3H5.5C5.77614 3 6 3.22386 6 3.5V4.5C6 4.77614 5.77614 5 5.5 5H4.5C4.22386 5 4 4.77614 4 4.5V3.5ZM4.5 7C4.22386 7 4 7.22386 4 7.5V8.5C4 8.77614 4.22386 9 4.5 9H5.5C5.77614 9 6 8.77614 6 8.5V7.5C6 7.22386 5.77614 7 5.5 7H4.5ZM8 3.5C8 3.22386 8.22386 3 8.5 3H9.5C9.77614 3 10 3.22386 10 3.5V4.5C10 4.77614 9.77614 5 9.5 5H8.5C8.22386 5 8 4.77614 8 4.5V3.5ZM8.5 7C8.22386 7 8 7.22386 8 7.5V8.5C8 8.77614 8.22386 9 8.5 9H9.5C9.77614 9 10 8.77614 10 8.5V7.5C10 7.22386 9.77614 7 9.5 7H8.5Z" fill="white"/>
</svg>
